<?xml version="1.0" encoding="UTF-8" standalone="no"?>
<svg
   xmlns:osb="http://www.openswatchbook.org/uri/2009/osb"
   xmlns:dc="http://purl.org/dc/elements/1.1/"
   xmlns:cc="http://creativecommons.org/ns#"
   xmlns:rdf="http://www.w3.org/1999/02/22-rdf-syntax-ns#"
   xmlns:svg="http://www.w3.org/2000/svg"
   xmlns="http://www.w3.org/2000/svg"
   xmlns:sodipodi="http://sodipodi.sourceforge.net/DTD/sodipodi-0.dtd"
   xmlns:inkscape="http://www.inkscape.org/namespaces/inkscape"
   width="25.066328"
   height="34.948795"
   viewBox="0 0 6.6321352 9.2468693"
   version="1.1"
   id="svg8"
   inkscape:version="1.0 (4035a4fb49, 2020-05-01)"
   sodipodi:docname="2000pin.svg">
  <defs
     id="defs2">
    <linearGradient
       id="linearGradient913"
       osb:paint="solid">
      <stop
         style="stop-color:#ed0376;stop-opacity:1;"
         offset="0"
         id="stop911" />
    </linearGradient>
  </defs>
  <sodipodi:namedview
     id="base"
     pagecolor="#ffffff"
     bordercolor="#666666"
     borderopacity="1.0"
     inkscape:pageopacity="0.0"
     inkscape:pageshadow="2"
     inkscape:zoom="18.546711"
     inkscape:cx="-0.3257648"
     inkscape:cy="16.961547"
     inkscape:document-units="mm"
     inkscape:current-layer="svg8"
     inkscape:document-rotation="0"
     showgrid="false"
     fit-margin-top="0"
     fit-margin-left="0"
     fit-margin-right="0"
     fit-margin-bottom="0"
     units="px"
     inkscape:window-width="1600"
     inkscape:window-height="837"
     inkscape:window-x="-8"
     inkscape:window-y="-8"
     inkscape:window-maximized="1" />
  <metadata
     id="metadata5">
    <rdf:RDF>
      <cc:Work
         rdf:about="">
        <dc:format>image/svg+xml</dc:format>
        <dc:type
           rdf:resource="http://purl.org/dc/dcmitype/StillImage" />
        <dc:title />
      </cc:Work>
    </rdf:RDF>
  </metadata>
  <g
     inkscape:label="Layer 1"
     inkscape:groupmode="layer"
     id="layer1"
     transform="translate(-51.464594,-186.94871)" />
  <path
     style="fill:#fd6a02;stroke-width:0.3;fill-opacity:1;stroke-miterlimit:4;stroke-dasharray:none;stroke:#000000;stroke-opacity:1"
     d="M 3.1304138,9.0948881 C 3.0492253,9.0112981 2.8515841,8.7917254 2.6912105,8.6069473 1.5641564,7.3083937 0.73207676,5.9909843 0.32678083,4.8634057 0.13489023,4.4368615 0.07358123,3.9958946 0.03024091,3.584815 -0.05950128,2.7226499 0.04833397,2.0867695 0.38267075,1.5066016 0.54450403,1.2257754 0.92078621,0.82004822 1.2040433,0.62095383 1.7711935,0.22231995 2.5331684,0 3.332298,0 4.2657096,0 5.1036407,0.30674391 5.7551137,0.88692473 5.9291767,1.0419393 6.1965908,1.3953936 6.3150828,1.6270636 6.569903,2.125276 6.6781875,2.7753863 6.6140855,3.4221952 6.5631317,3.9363518 6.4800404,4.4454883 6.428492,4.5594425 6.3216964,4.959522 6.123453,5.3302298 5.9639981,5.6500584 5.6554829,6.2703359 5.1465383,7.0884536 4.7316279,7.6310678 4.1875898,8.3425515 3.3936007,9.2468692 3.3129558,9.2468692 c -0.019209,0 -0.1013531,-0.068394 -0.18254,-0.1519811 z M 5.6921915,4.2154863 C 5.7098612,4.1934911 5.7628111,4.0602546 5.8098618,3.9194115 5.9513825,3.495776 5.9205478,2.8461714 5.7362433,2.3684016 5.4221042,1.5540649 4.610082,0.91054459 3.7190001,0.76975553 2.3952343,0.56060239 1.1093142,1.4049727 0.79695374,2.6884506 0.70738097,3.056502 0.7053638,3.5957078 0.79264585,3.8398338 c 0.0341801,0.095607 0.0786497,0.1792427 0.0988212,0.185866 C 0.94046785,4.0417858 1.2036707,3.796346 1.542037,3.4190342 2.0879647,2.8102694 2.7285945,2.1164456 2.7469109,2.1141153 c 0.018488,-0.00238 0.9259162,1.3805502 1.005473,1.5323195 0.02274,0.043374 0.082547,0.1222964 0.1329069,0.1753708 0.1473509,0.1552987 0.1725035,0.091988 0.1864001,-0.4692537 L 4.0836867,2.868403 4.3113507,2.570065 C 4.4365658,2.4059758 4.5451549,2.2717237 4.5526575,2.2717237 c 0.00751,0 0.1897592,0.3491568 0.4050111,0.7759047 0.6056678,1.2007651 0.6506509,1.2722859 0.7345294,1.1678579 z"
     id="path78"
     sodipodi:nodetypes="scccscssscccsssscsscscccccccccsscc" />
</svg>
