<?xml version="1.0" encoding="UTF-8" standalone="no"?>
<svg
   xmlns:dc="http://purl.org/dc/elements/1.1/"
   xmlns:cc="http://creativecommons.org/ns#"
   xmlns:rdf="http://www.w3.org/1999/02/22-rdf-syntax-ns#"
   xmlns:svg="http://www.w3.org/2000/svg"
   xmlns="http://www.w3.org/2000/svg"
   xmlns:sodipodi="http://sodipodi.sourceforge.net/DTD/sodipodi-0.dtd"
   xmlns:inkscape="http://www.inkscape.org/namespaces/inkscape"
   inkscape:version="1.0 (4035a4fb49, 2020-05-01)"
   sodipodi:docname="map_pin.svg"
   viewBox="0 0 40 45"
   height="45"
   width="40"
   id="svg905"
   version="1.1">
  <metadata
     id="metadata911">
    <rdf:RDF>
      <cc:Work
         rdf:about="">
        <dc:format>image/svg+xml</dc:format>
        <dc:type
           rdf:resource="http://purl.org/dc/dcmitype/StillImage" />
        <dc:title></dc:title>
      </cc:Work>
    </rdf:RDF>
  </metadata>
  <defs
     id="defs909" />
  <sodipodi:namedview
     inkscape:current-layer="g913"
     inkscape:window-maximized="1"
     inkscape:window-y="-8"
     inkscape:window-x="-8"
     inkscape:cy="58.598046"
     inkscape:cx="135.69026"
     inkscape:zoom="2.0552147"
     showborder="false"
     inkscape:showpageshadow="false"
     showgrid="false"
     id="namedview907"
     inkscape:window-height="837"
     inkscape:window-width="1600"
     inkscape:pageshadow="2"
     inkscape:pageopacity="0"
     guidetolerance="10"
     gridtolerance="10"
     objecttolerance="10"
     borderopacity="1"
     bordercolor="#666666"
     pagecolor="#ffffff" />
  <g
     transform="translate(-403.74644,-29.228467)"
     id="g913"
     inkscape:label="Image"
     inkscape:groupmode="layer">
    <path
       style="fill:#0287c1;stroke-width:0.999998"
       d="m 422.53787,73.698205 c -10.43402,-5.210576 -17.34416,-12.292312 -18.58216,-19.043614 -0.14718,-0.802662 -0.20836,-2.011302 -0.20872,-4.12357 l -5.5e-4,-2.988095 0.98302,-1.226423 c 0.54066,-0.674534 1.1783,-1.481319 1.41698,-1.792857 0.23868,-0.311537 0.6244,-0.808468 0.85716,-1.10429 1.92353,-2.444659 3.37016,-4.304771 3.59398,-4.621248 0.54668,-0.772966 1.72844,-2.191606 1.82567,-2.191606 0.0553,0 0.38391,0.363053 0.73015,0.806785 1.84634,2.36621 1.89819,2.413136 2.40313,2.17493 0.14578,-0.06878 1.98713,-2.394168 4.09188,-5.167542 2.10475,-2.773372 3.87069,-5.096926 3.92432,-5.163452 0.0592,-0.0734 0.22616,-0.0035 0.42473,0.177853 0.2856,0.260796 3.61616,4.519828 4.35913,5.574322 0.14915,0.211693 0.63181,0.832447 1.07257,1.379454 0.44076,0.547005 0.97455,1.217352 1.18619,1.489659 0.40087,0.51576 0.67419,0.677439 0.96158,0.568793 0.18307,-0.06921 0.93527,-0.975985 1.79879,-2.168447 0.29711,-0.410288 0.61055,-0.746448 0.69654,-0.747023 0.14472,-9.56e-4 1.00158,1.043629 4.16594,5.078714 1.27707,1.628477 1.66933,2.123307 2.46347,3.107618 0.8279,1.026166 1.86861,2.328983 2.4685,3.090213 l 0.57627,0.731258 v 3.102068 c 0,2.844237 -0.0787,3.786037 -0.41515,4.969076 -1.21252,4.263256 -4.22556,8.310729 -9.0385,12.141599 -2.81273,2.238798 -7.40963,5.119476 -10.16459,6.369703 -0.39583,0.179634 -0.36584,0.187628 -1.59036,-0.423878 z m 9.96544,-21.195042 c 0.26099,0 0.10282,-0.805623 -0.49634,-2.527945 l -0.62084,-1.784653 0.0429,-1.638581 0.0429,-1.63858 -1.07473,-1.374524 c -0.5911,-0.755988 -1.49037,-1.866268 -1.99836,-2.46729 -0.508,-0.601021 -0.92364,-1.17191 -0.92364,-1.268642 0,-0.100396 0.27641,-0.266808 0.64407,-0.387757 0.73328,-0.241229 1.11864,-0.497706 1.11864,-0.7445 0,-0.207101 -1.06425,-1.625705 -3.11864,-4.157018 -1.45074,-1.787514 -1.57048,-1.911095 -1.89114,-1.951799 l -0.31971,-0.04058 0.0946,1.78974 0.0945,1.789741 -0.78573,0.581555 c -0.43216,0.319855 -0.83057,0.63534 -0.88536,0.701079 -0.20857,0.25024 -0.0809,0.626843 0.5064,1.494046 0.6407,0.946022 0.74113,1.403624 0.41973,1.91238 -0.19259,0.304847 -0.48359,0.7853 -1.79907,2.970311 -0.51254,0.851322 -0.72112,1.32062 -0.66873,1.504616 0.0865,0.303652 0.62947,0.543738 2.04807,0.905529 2.20663,0.562766 2.07715,0.500078 2.34142,1.13359 0.62792,1.505234 1.18763,2.661797 1.37204,2.835148 0.32964,0.309865 5.33334,2.499142 5.54685,2.426921 0.10209,-0.03453 0.24164,-0.06278 0.31012,-0.06278 z m 9.05086,-1.045833 c 0.0673,-0.115042 0.15562,-1.052427 0.19629,-2.083078 0.0679,-1.721519 0.0518,-1.910412 -0.19894,-2.322744 -0.6299,-1.03597 -1.63916,-2.0255 -2.93085,-2.87355 -0.71447,-0.469082 -0.97113,-0.706818 -0.9217,-0.85376 0.28132,-0.83624 0.41477,-0.598523 -2.32866,-4.147935 -0.83467,-1.079891 -1.19882,-1.161632 -1.71514,-0.385006 -0.48727,0.732919 -0.44622,1.024675 0.26078,1.853733 0.66059,0.774632 0.72535,1.036099 0.39574,1.597937 -0.11793,0.201031 -0.18129,0.481854 -0.1408,0.624054 0.0405,0.1422 0.50308,0.66939 1.02798,1.171535 1.11736,1.068915 1.09533,0.957335 0.66181,3.351512 -0.23385,1.29148 -0.26415,1.703425 -0.14257,1.938637 0.1644,0.318062 1.05422,0.756066 3.55378,1.749313 1.5527,0.616994 2.09097,0.706465 2.28228,0.379352 z M 411.5285,50.724456 c 0.20147,-0.196231 0.21912,-0.398515 0.13852,-1.586944 l -0.0924,-1.362045 0.80309,-0.713889 c 0.4417,-0.392639 1.15737,-0.997002 1.59038,-1.343028 0.77986,-0.623205 0.78671,-0.634477 0.72629,-1.195237 -0.0844,-0.783798 -0.72496,-3.269664 -0.98241,-3.812803 -0.31493,-0.6644 -1.25897,-1.713533 -1.54189,-1.713533 -0.14263,0 -0.57236,0.3631 -1.02557,0.866547 l -0.78008,0.866548 0.0469,1.186444 0.0469,1.186445 -0.66421,0.150345 c -0.36532,0.08269 -0.74735,0.223621 -0.84895,0.313183 -0.10161,0.08956 -0.33402,0.694255 -0.51647,1.34376 -0.35273,1.255644 -0.49257,1.472702 -2.06933,3.211877 l -0.8502,0.93777 v 0.819266 c 0,0.65416 0.0478,0.843817 0.23729,0.941094 0.13854,0.07113 1.34303,0.123342 2.89424,0.125463 2.43206,0.0033 2.6765,-0.0154 2.88785,-0.221263 z"
       id="path1611" />
  </g>
</svg>
