<?xml version="1.0" encoding="UTF-8" standalone="no"?>
<svg

   xmlns:dc="http://purl.org/dc/elements/1.1/"
   xmlns:cc="http://creativecommons.org/ns#"
   xmlns:rdf="http://www.w3.org/1999/02/22-rdf-syntax-ns#"
   xmlns:svg="http://www.w3.org/2000/svg"
   xmlns="http://www.w3.org/2000/svg"
   xmlns:sodipodi="http://sodipodi.sourceforge.net/DTD/sodipodi-0.dtd"
   xmlns:inkscape="http://www.inkscape.org/namespaces/inkscape"
   version="1.1"
   id="svg1573"
   width="40"
   height="45"
   viewBox="0 0 40 45.000003"
   preserveAspectRatio="none"
   sodipodi:docname="pin.svg"
   inkscape:version="1.0 (4035a4fb49, 2020-05-01)">
  <metadata
     id="metadata1579">
    <rdf:RDF>
      <cc:Work
         rdf:about="">
        <dc:format>image/svg+xml</dc:format>
        <dc:type
           rdf:resource="http://purl.org/dc/dcmitype/StillImage" />
        <dc:title></dc:title>
      </cc:Work>
    </rdf:RDF>
  </metadata>
  <defs
     id="defs1577" />
  <sodipodi:namedview
     showborder="false"
     inkscape:showpageshadow="false"
     inkscape:pagecheckerboard="true"
     scale-x="1"
     lock-margins="true"
     fit-margin-bottom="0"
     fit-margin-right="0"
     fit-margin-left="0"
     fit-margin-top="0"
     inkscape:document-rotation="0"
     pagecolor="#ffffff"
     bordercolor="#666666"
     borderopacity="1"
     objecttolerance="10"
     gridtolerance="10"
     guidetolerance="10"
     inkscape:pageopacity="0"
     inkscape:pageshadow="2"
     inkscape:window-width="1600"
     inkscape:window-height="837"
     id="namedview1575"
     showgrid="false"
     inkscape:zoom="8.6980985"
     inkscape:cx="18.39325"
     inkscape:cy="13.60162"
     inkscape:window-x="-8"
     inkscape:window-y="-8"
     inkscape:window-maximized="1"
     inkscape:current-layer="g66" />
  <g
     transform="translate(-7.0413781,-7.7604194)"
     inkscape:groupmode="layer"
     inkscape:label="Image"
     id="g1581">
    <g
       transform="rotate(-0.55819479,19.993702,22.525281)"
       id="g1600">
      <g
         transform="matrix(0.82360786,-3.3410713e-5,-3.3410713e-5,0.82703686,6.9558242,7.809364)"
         id="g37">
        <g
           id="g66">
          <g
             transform="matrix(1.2268658,1.6493673e-4,1.6493675e-4,1.209938,-0.0633205,0.04422895)"
             id="g843">
            <g
               transform="matrix(0.2140371,0,0,0.20972488,-62.694007,-22.617229)"
               id="g1585">
              <path
                 id="path1589"
                 d="m 382.97937,320.13199 c -0.47877,-1.27505 -2.11175,-6.14328 -3.62883,-10.81828 -4.00108,-12.32958 -11.03048,-30.07927 -16.23721,-41 -2.49115,-5.225 -5.61396,-11.90942 -6.93959,-14.85426 -1.32562,-2.94485 -4.64515,-9.0677 -7.37672,-13.60635 -2.73158,-4.53864 -4.9665,-8.53966 -4.9665,-8.89114 0,-0.35149 -3.53865,-6.15363 -7.86366,-12.89366 -16.63459,-25.92305 -42.13634,-68.76483 -42.13634,-70.78711 0,-1.60286 35.43373,-36.96748 37.03972,-36.96748 0.92763,0 3.69816,2.1375 6.15675,4.75 7.84335,8.33437 27.53821,26.25 28.85692,26.25 0.69971,0 5.27238,-4.05 10.1615,-9 5.74855,-5.82014 9.6536,-9 11.05251,-9 1.38661,0 4.96667,2.87205 9.97213,8 5.47591,5.60991 8.52615,8 10.20961,8 1.68221,0 5.22037,-2.76835 11.82217,-9.25 13.39611,-13.1523 22.74615,-21.75 23.65322,-21.75 1.55854,0 36.07512,34.37654 36.0628,35.91649 -0.007,0.87093 -1.2696,4.05851 -2.80586,7.08351 -3.74342,7.37107 -24.91392,42.78106 -37.06781,62 -20.85609,32.97972 -32.74786,57.41405 -45.01813,92.5 -4.8156,13.76986 -5.9078,16.04436 -7.83586,16.31828 -1.59182,0.22615 -2.49231,-0.35279 -3.11082,-2 z"
                 style="fill:#00ff00" />
            </g>
            <path
               style="fill:#00aad4"
               d="m 369.87843,270.56371 c -0.53297,-0.9625 -4.94793,-9.625 -9.81102,-19.25 -4.86309,-9.625 -14.78084,-27.13065 -22.03944,-38.90145 -7.2586,-11.77079 -13.19745,-21.82087 -13.19745,-22.33351 0,-1.27091 60.24351,-62.73396 61.50615,-62.75126 1.909,-0.0262 61.97414,60.9084 60.96578,61.84823 -0.53456,0.49823 -7.49693,1.65592 -15.47193,2.57265 -40.61918,4.66918 -67.46102,13.58772 -72.43377,24.06702 -3.21598,6.77716 -1.82839,9.64014 10.41953,21.49832 8.58754,8.31428 11.10382,11.3847 12.08796,14.75 1.69834,5.80756 0.0662,10.87474 -5.19835,16.13934 -4.59108,4.59108 -5.43149,4.88166 -6.82746,2.36066 z m 24.33718,-120.5 c 0.37697,-1.19479 1.58403,-1.75 3.80464,-1.75 h 3.25249 l -6.44222,-6.5 c -3.54322,-3.575 -7.11717,-6.5 -7.94211,-6.5 -1.56458,0 -13.05789,10.8086 -13.05789,12.27997 0,0.46342 2.0308,0.53804 4.51289,0.16583 4.31024,-0.64636 4.72238,-0.48366 9.17799,3.62338 4.99669,4.60579 4.81342,4.64191 6.69421,-1.31918 z m 15.53649,93.17334 c -1.75705,-1.71757 -5.7207,-4.71241 -8.80811,-6.6552 -20.58973,-12.95635 -18.13567,-21.91441 8.38653,-30.61342 7.92522,-2.59939 25.96936,-6.65472 29.61008,-6.65472 1.03946,0 1.88992,0.4441 1.88992,0.98689 0,0.5428 -3.31688,6.2803 -7.37084,12.75 -4.05396,6.46971 -9.9442,16.37392 -13.08941,22.00935 -3.14522,5.63544 -6.10219,10.48333 -6.57105,10.7731 -0.46886,0.28978 -2.29007,-0.87842 -4.04712,-2.596 z m -90.1609,-61.06214 c -2.82158,-3.77732 -18.99896,-31.34427 -20.08152,-34.21976 -0.55332,-1.46973 2.47852,-5.07855 14.49208,-17.25 8.35549,-8.46529 15.77101,-15.39144 16.47894,-15.39144 1.36148,0 29.22602,26.02739 30.71719,28.69198 0.67807,1.21163 -3.59852,6.03299 -19.1112,21.54568 l -19.98475,19.98475 z m 18.60735,-50.8612 c 1.99758,0 3.63197,-0.4151 3.63197,-0.92245 0,-0.97516 -10.02048,-10.07755 -11.09399,-10.07755 -1.2003,0 -9.90601,8.64677 -9.90601,9.83894 0,0.75371 0.85871,0.98364 2.31163,0.61898 1.81825,-0.45635 2.56789,-0.0178 3.51227,2.05493 l 1.20063,2.63511 3.35577,-2.07398 c 1.84567,-1.14069 4.99015,-2.07398 6.98773,-2.07398 z m 91.88197,32.76049 c -10.5875,-10.60359 -19.25,-19.78177 -19.25,-20.39595 0,-1.27828 30.31621,-30.36454 31.64854,-30.36454 0.48161,0 7.84521,6.98063 16.36356,15.51251 l 15.4879,15.51251 -2.75135,5.23749 c -6.15794,11.72232 -19.56374,33.25512 -20.86086,33.50736 -0.76329,0.14843 -10.05029,-8.40579 -20.63779,-19.00938 z m 16.25,-32.76049 c 0.45751,-1.44149 1.51303,-2 3.7798,-2 h 3.14502 l -4.92482,-5 c -2.70865,-2.75 -5.52351,-5 -6.25525,-5 -1.57579,0 -11.24475,8.82881 -11.24475,10.26768 0,0.57014 1.43646,0.7609 3.3686,0.44736 2.31395,-0.37551 4.27072,0.0303 6.25,1.29605 3.7815,2.41834 5.11112,2.41584 5.8814,-0.0111 z"
               id="path1587"
               transform="matrix(0.2140371,0,0,0.20972488,-62.694007,-22.617228)" />
          </g>
        </g>
      </g>
    </g>
  </g>
</svg>
