<?xml version="1.0" encoding="UTF-8" standalone="no"?>
<svg
   xmlns:dc="http://purl.org/dc/elements/1.1/"
   xmlns:cc="http://creativecommons.org/ns#"
   xmlns:rdf="http://www.w3.org/1999/02/22-rdf-syntax-ns#"
   xmlns:svg="http://www.w3.org/2000/svg"
   xmlns="http://www.w3.org/2000/svg"
   xmlns:sodipodi="http://sodipodi.sourceforge.net/DTD/sodipodi-0.dtd"
   xmlns:inkscape="http://www.inkscape.org/namespaces/inkscape"
   inkscape:version="1.0 (4035a4fb49, 2020-05-01)"
   sodipodi:docname="wikilogo.svg"
   viewBox="0 0 50 50"
   height="50"
   width="50"
   id="Wikipedia_logo"
   version="1.1">
  <metadata
     id="metadata55">
    <rdf:RDF>
      <cc:Work
         rdf:about="">
        <dc:format>image/svg+xml</dc:format>
        <dc:type
           rdf:resource="http://purl.org/dc/dcmitype/StillImage" />
        <dc:title>Wikipedia logo</dc:title>
      </cc:Work>
    </rdf:RDF>
  </metadata>
  <defs
     id="defs53" />
  <sodipodi:namedview
     inkscape:current-layer="g892"
     inkscape:window-maximized="1"
     inkscape:window-y="-8"
     inkscape:window-x="-8"
     inkscape:cy="83.883598"
     inkscape:cx="81.444829"
     inkscape:zoom="3.35"
     showgrid="false"
     id="namedview51"
     inkscape:window-height="837"
     inkscape:window-width="1600"
     inkscape:pageshadow="2"
     inkscape:pageopacity="0"
     guidetolerance="10"
     gridtolerance="10"
     objecttolerance="10"
     borderopacity="1"
     bordercolor="#666666"
     pagecolor="#ffffff"
     inkscape:document-rotation="0"
     fit-margin-top="0"
     fit-margin-left="0"
     fit-margin-right="0"
     fit-margin-bottom="0" />
  <title
     id="title2">Wikipedia logo</title>
  <desc
     id="desc4">For more information see: http://commons.wikimedia.org/wiki/File:Wikipedia_svg_logo.svg</desc>
  <radialGradient
     gradientUnits="userSpaceOnUse"
     gradientTransform="matrix(0,1.0678046,0.5448,0,-131.58205,-179.17398)"
     r="58.789299"
     cy="258.793"
     cx="191.78419"
     id="path8102_1_">
    <stop
       id="stop7"
       stop-color="#fff"
       offset="0" />
    <stop
       id="stop9"
       stop-color="#fff"
       offset="0.2352" />
    <stop
       id="stop11"
       stop-color="#EAEAEA"
       offset="0.3321" />
    <stop
       id="stop13"
       stop-color="#C9C9C9"
       offset="0.6773" />
    <stop
       id="stop15"
       stop-color="#C9C9C9"
       offset="0.7017" />
    <stop
       id="stop17"
       stop-color="#919191"
       offset="0.8872" />
    <stop
       id="stop19"
       stop-color="#636363"
       offset="1" />
  </radialGradient>
  <radialGradient
     gradientUnits="userSpaceOnUse"
     gradientTransform="matrix(0,0.74780255,0.32742501,0,-85.608325,-207.16372)"
     r="71.077904"
     cy="279.83789"
     cx="312.71091"
     id="path33245_1_">
    <stop
       id="stop43"
       stop-color="#c8c8c8"
       offset="0" />
    <stop
       id="stop45"
       stop-color="#5a5a5a"
       offset="1" />
  </radialGradient>
  <g
     transform="scale(1.2059486,0.63250954)"
     id="g892">
    <path
       style="stroke-width:0.353223"
       id="path9071"
       fill="#ffffff"
       d="m 11.63225,26.800418 c -0.249,-0.02595 -0.67175,-0.04192 -0.725,-0.942738 -0.02675,-0.452655 0.9035,-2.120538 0.67,-2.784796 -0.05825,-0.165691 -0.22725,-0.344357 -0.626,-0.570434 -0.476,-0.209609 -1.3285,-0.07286 -2.801,0.986656 -0.06625,0.04791 0.01975,-0.01597 -0.033,0.02196 -0.05725,0.04042 -0.02775,0.01647 -0.066,0.04392 0.0455,-0.03045 -0.0665,0.05589 -0.26375,0.19763 -0.016,0.01547 -0.0275,0.02895 -0.2635,0.175672 -0.32325,-2.322161 0.54825,-6.607652 1.28525,-6.753879 0.3,-0.05939 0.63525,0.775551 1.0655,0.306927 0.775,-0.843923 0.85425,-2.134512 0.747,-3.727535 C 10.54,12.541068 9.91225,13.687924 9.4905,14.01681 9.03225,14.374142 9.02275,14.588741 8.89725,14.345695 8.51525,13.605578 8.727,11.930209 10.22625,8.62239 10.7525,7.4615595 10.9895,5.8086485 11.01725,5.2457005 11.049,4.5974118 10.0025,6.413518 9.89675,5.969348 9.82325,5.659926 10.73575,3.8877379 11.204,3.4036426 c 0.21725,-0.2245803 0.2185,0.2545243 0.3735,0.2190906 0.202,-0.045914 1.467,-2.3506074 1.384,-2.71891915 C 12.907,0.6627645 11.9935,1.7152976 11.951,1.4522891 11.928,1.3100549 12.89575,0.33387908 12.89575,0.33387908 c 0,0 -0.0053,-0.0494076 0,-0.0878359 C 12.515,0.518531 7.50775,3.7115642 3.57,15.486061 c -6.30175,18.840792 -3.696,44.259294 5.8105,56.748454 9.5065,12.48916 22.33475,7.329305 28.636499,-11.51199 3.15075,-9.420395 4.0795,-20.504681 3.03175,-30.786467 -1.04825,-10.281786 -4.38575,-19.512037 -5.624,-20.699818 0.24725,0.4830975 0.41025,0.788028 0.34025,0.964698 -0.0405,0.102807 -0.34325,0.218591 -0.626,-0.394763 -0.283,-0.6128545 -1.609,-2.666018 -1.7685,-3.1356405 -0.16,-0.469123 -0.1295,-0.628825 -0.044,-0.6577705 0.0855,-0.028945 0.227,0.068372 0.28575,0.1317535 C 33.6705,6.2074 32.31775,4.0479356 32.228,3.9296566 32.13875,3.8118767 31.891,3.6112516 31.84375,3.6446891 c -0.083,0.058391 0.2155,0.4696224 0.1645,0.570434 -0.0465,0.091828 -0.1855,0.039926 -0.2965,-0.1537127 C 31.656,3.9645913 30.1775,1.8166053 29.27325,1.1229016 28.738,1.2836013 28.3965,1.3859101 28.33975,1.6050007 c -0.0815,0.3139134 1.2055,1.347482 1.274,1.6010082 C 29.68575,3.4715127 29.411,3.8597872 29.1525,3.9296566 28.3435,4.1482481 28.03,3.3642133 27.933,2.9210414 27.59325,1.3634521 26.13225,1.9353833 24.8465,3.6007712 24.29125,4.3199273 22.121,4.3119422 22.1005,3.754484 22.061,2.6829863 22.26025,1.9763069 20.947,2.4169834 c -0.92325,0.3094217 -1.1705,0.9636991 -1.0875,1.096451 0.15375,0.2470384 0.78425,0.6897111 0.83475,1.096451 C 20.7285,4.8863688 19.903,6.434975 17.6295,6.1230575 17.4035,8.532555 17.413,9.066058 17.6405,9.806674 c 0.2275,0.740616 0.59275,1.026582 0.802,0.921279 0.4825,-0.243545 0.95975,-1.389404 1.318,-1.403378 0.62675,-0.02595 1.052,1.178298 1.0215,2.806755 0.0033,-0.0025 0.008,0.0025 0.011,0 -7.5e-4,0.05689 -0.0087,0.100313 -0.011,0.153713 -0.001,0.02196 0.0012,0.04392 0,0.06588 -0.10025,1.800136 -1.137,1.129888 -1.8345,0.789524 -0.8875,-0.433689 -0.89375,5.504714 -0.055,6.644085 -1.6405,-0.34785 -3.717,1.209739 -4.81125,2.170943 -0.9025,0.792519 0.85325,2.458406 0.54925,3.025845 -0.35675,0.666255 -1.09925,1.30057 -1.6695,1.579049 -0.32075,0.15521 -1.0895,0.265005 -1.32875,0.240052 z" />
    <path
       style="fill:url(#path8102_1_);stroke-width:0.353223"
       id="path8102"
       fill="url(#path8102_1_)"
       d="m 11.6325,26.800418 c -0.249,-0.02595 -0.67175,-0.04192 -0.725,-0.942738 -0.02675,-0.452655 0.9035,-2.120538 0.67,-2.784796 -0.058,-0.165691 -0.22725,-0.344357 -0.626,-0.570434 -0.476,-0.209609 -1.3285,-0.07286 -2.801,0.986656 -0.06625,0.04791 0.01975,-0.01597 -0.033,0.02196 -0.05725,0.04042 -0.02775,0.01647 -0.066,0.04392 0.0455,-0.03045 -0.06625,0.05589 -0.26375,0.19763 -0.016,0.01547 -0.02725,0.02895 -0.2635,0.175672 C 7.201,21.606127 8.0725,17.320636 8.8095,17.174409 c 0.3,-0.05939 0.63525,0.775551 1.0655,0.306927 0.775,-0.843923 0.85425,-2.134512 0.747,-3.727535 C 10.54025,12.541068 9.9125,13.687924 9.49075,14.01681 9.0325,14.374142 9.023,14.588741 8.8975,14.345695 8.5155,13.605578 8.72725,11.930209 10.2265,8.62239 10.75275,7.4615595 10.98975,5.8086485 11.0175,5.2457005 11.04925,4.5974118 10.00275,6.414017 9.897,5.969348 9.8235,5.659427 10.736,3.8877379 11.20425,3.4036426 11.4215,3.1790623 11.42275,3.6581669 11.57775,3.6227332 11.78,3.5768192 13.045,1.2721258 12.96175,0.90381405 12.90725,0.6627645 11.99375,1.7152976 11.95125,1.4522891 11.92825,1.3100549 12.896,0.33387908 12.896,0.33387908 c 0,0 -0.0053,-0.0494076 0,-0.0878359 C 12.51525,0.518531 7.508,3.7115642 3.57025,15.485562 c -6.302,18.84179 -3.69625,44.259793 5.8105,56.748953 9.50675,12.48916 22.335,7.3298 28.636499,-11.51149 3.151,-9.420895 4.0795,-20.504682 3.03175,-30.786468 -1.048,-10.281786 -4.3855,-19.512037 -5.624,-20.699818 0.2475,0.4830975 0.4105,0.788028 0.34025,0.964698 -0.0405,0.102808 -0.34325,0.218591 -0.626,-0.394763 -0.28275,-0.6128545 -1.60875,-2.666018 -1.7685,-3.1356405 -0.15975,-0.469123 -0.1295,-0.6288245 -0.044,-0.6577705 0.0855,-0.028945 0.227,0.068372 0.28575,0.1317535 C 33.67125,6.2083985 32.318,4.0484346 32.2285,3.9301557 32.139,3.8118767 31.8915,3.6117507 31.844,3.6451882 c -0.083,0.058391 0.21575,0.4696224 0.165,0.570434 -0.04675,0.091828 -0.18575,0.040424 -0.297,-0.1537127 C 31.65675,3.9650904 30.17775,1.8171044 29.2735,1.1234007 28.73825,1.2841004 28.397,1.3864092 28.34,1.6054998 c -0.0815,0.3139134 1.2055,1.3474819 1.27425,1.6010082 0.072,0.2655038 -0.203,0.6537782 -0.46125,0.7236477 -0.809,0.2185915 -1.1225,-0.5654434 -1.21925,-1.0086152 -0.34025,-1.5580884 -1.801,-0.9861572 -3.087,0.6797298 -0.555,0.7191561 -2.7255,0.711171 -2.746,0.1537127 C 22.0615,2.6834853 22.261,1.9768059 20.94725,2.4174824 20.024,2.7269042 19.777,3.3811815 19.85975,3.5139335 c 0.154,0.2470383 0.78475,0.6897111 0.835,1.096451 0.03425,0.2764833 -0.791,1.8250895 -3.06475,1.5131725 -0.226,2.409497 -0.2165,2.943 0.011,3.683616 0.2275,0.740616 0.59275,1.026582 0.802,0.921279 0.48275,-0.243545 0.95975,-1.388905 1.318,-1.403378 0.62675,-0.02595 1.052,1.178298 1.02175,2.806755 0.003,-0.0025 0.0078,0.0025 0.01075,0 -5e-4,0.05739 -0.0088,0.100313 -0.01075,0.153713 -0.001,0.02196 0.001,0.04392 0,0.06588 -0.1,1.800136 -1.13725,1.129888 -1.8345,0.789525 -0.8875,-0.43369 -0.89375,5.504713 -0.055,6.644084 -1.6405,-0.34785 -3.71675,1.209739 -4.81125,2.170943 -0.9025,0.792519 0.85325,2.457907 0.54925,3.025845 -0.35675,0.666255 -1.09925,1.30057 -1.66975,1.579049 -0.32125,0.15521 -1.08975,0.264506 -1.329,0.239553 z" />
    <path
       id="derri__re"
       fill="#5a5a5a"
       stroke="#5a5a5a"
       stroke-width="0.0496632"
       d="m 11.249,16.383883 c 1.47925,0.147225 2.38225,-0.636311 3.29525,-1.386908 -1.6315,-2.361088 2.6925,-3.510939 1.47275,-0.573428 1.123,0.191642 2.0125,-1.154343 3.07225,-1.720286 0.42475,-0.227075 1.27775,-0.216096 1.70725,-0.569435 -0.02275,2.087598 -1.12525,1.36445 -1.851,1.010112 -0.8875,-0.43369 -0.8965,5.502717 -0.05775,6.642088 -1.6405,-0.34785 -3.706,1.217724 -4.80025,2.178429 -0.90275,0.792519 0.84425,2.444931 0.54025,3.01287 -0.35675,0.666255 -1.10025,1.311549 -1.67075,1.590527 -0.32125,0.156708 -1.08725,0.284968 -1.32575,0.231568 -0.2385,-0.0534 -0.22375,-0.391269 0.20725,-1.42384 0.3105,-0.744109 0.46875,-1.314044 -0.02575,-2.058653 -0.3925,-0.591394 -0.6,-0.691208 -0.8575,-0.804496 C 10.47925,22.302823 9.6235,22.437571 8.151,23.496592 8.40675,20.330508 8.79775,19.395256 9.08575,18.712033 9.3565,18.069234 9.753,18.452019 10.28425,18.592257 10.8415,18.739481 11.164,17.425936 11.249,16.383883 Z" />
    <path
       id="path13898"
       stroke="#000000"
       stroke-width="0.0496632"
       d="m 12.9165,0.24454302 c 0,0 -0.99175,1.05852198 -0.96875,1.20075618 0.0425,0.2630085 0.95325,-0.77155825 1.00775,-0.5305087 0.08325,0.3683118 -1.18075,2.6675152 -1.38275,2.7139285 -0.155,0.035434 -0.15,-0.4581439 -0.36725,-0.2340626 C 10.7375,3.8787517 9.8269995,5.658426 9.9007495,5.967848 10.0065,6.412517 11.04975,4.6023994 11.018,5.250189 c -0.0275,0.562948 -0.26275,2.223345 -0.789,3.384176 -1.4995005,3.30732 -1.7102505,4.968216 -1.3282505,5.708333 0.1255,0.243046 0.586,-0.311917 0.586,-0.311917 C 9.9777495,11.17911 11.232,10.197444 11.479,7.5583755 11.5355,6.954504 11.484,6.94602 11.182,5.9209355 c 0,0 0.31225,-0.561451 0.50775,-0.7955135 0.20375,-0.2440439 0.19425,0.2550235 0.3985,0.124767 0.4335,-0.2759844 0.7835,-1.0814791 1.086,-1.8560317 0.3025,-0.7745526 0.09125,-0.9222765 0.1015,-1.185285 0.01075,-0.2694964 0.10075,0.035433 0,-0.436684 C 13.175,1.3000706 12.9165,0.24454302 12.9165,0.24454302 Z m 15.422,1.43481878 c 0.0068,0.4037455 -0.0205,0.8274537 0.01575,1.2167263 0.02925,0.3179059 0.4835,0.7785451 0.80475,1.029576 0.26025,-0.039926 0.53275,-0.451656 0.461,-0.7176589 C 29.551,2.9544789 28.9385,2.6410646 28.3385,1.6793618 Z m -8.47675,1.8400614 c -0.02175,0.2605132 0.012,1.4133588 0.086,2.1055653 0.299,-0.280975 0.78425,-0.7376216 0.75,-1.0136059 C 20.64725,4.2046427 19.979,3.8373291 19.86175,3.5194232 Z M 31.8385,3.7065735 c -0.0745,0.1966325 -0.1,0.2839693 -0.125,0.3588294 0.1245,0.1936382 0.2505,0.2480365 0.297,0.1562081 0.0505,-0.1008116 -0.12825,-0.3623229 -0.172,-0.5150375 z m 1.492,2.2927155 C 33.245,6.028734 33.21,6.200413 33.3695,6.6700355 33.59,6.1734635 33.40575,6.599667 33.61175,6.139527 33.55325,6.0766445 33.416,5.969844 33.3305,5.999289 Z m 2.09375,3.228467 c -0.2925,0.577421 -0.0435,0.096819 -0.289,0.576922 0.28275,0.612855 0.5845,0.49258 0.625,0.389772 C 35.83,10.01778 35.672,9.710853 35.42425,9.227756 Z M 19.768,9.3210815 c -0.35825,0.014475 -0.8455,1.1758035 -1.32825,1.4193475 -0.4185,0.211106 -0.62625,-0.639804 -0.90625,-1.185285 0.10475,1.235691 0.2585,2.432954 0.82025,2.697959 0.52925,0.249533 1.1185,-1.344488 1.64075,-1.341493 0.3055,0.0015 0.63475,1.095452 0.789,1.434818 C 20.85925,10.606679 20.423,9.294132 19.768,9.3210815 Z m -9.25775,3.9456275 c -0.0465,1.643927 0.14225,3.367207 -0.63275,4.21113 C 9.44725,17.945964 9.107,17.106533 8.80725,17.165922 8.0705,17.31165 7.20275,21.596642 7.526,23.918803 c 0.49,-0.304431 0.02525,-0.01048 0.586,-0.405742 0.18875,-2.043681 0.44325,-3.999027 1.07025,-5.053057 0.32475,-0.546978 1.17,0.478605 1.55475,-0.156208 0.48575,-0.801004 0.954,-3.429591 -0.22675,-5.037087 z m 1.07025,9.810167 c 0.2395,0.661763 -0.6065,2.15647 -0.672,2.776312 -0.0655,0.619842 0.2605,0.890835 0.586,0.888839 -0.261,-0.341861 0.42625,-1.368942 0.59375,-2.308187 0.071,-0.398755 -0.053,-0.752094 -0.50775,-1.356964 z" />
    <path
       style="stroke-width:0.353223"
       id="path2240"
       fill="none"
       d="M 12.85275,0 C 5.3065,6.1445175 0,20.691334 0,37.874224 0,60.57181 9.28075,78.988395 20.71675,78.988395 c 11.436,0 20.716499,-18.416585 20.716499,-41.114171 0,-10.771371 -2.09525,-20.558582 -5.51425,-27.8923775 -0.236,0.4855935 -0.63075,0.4262045 -1.186,-0.7675655 -0.416,-0.8943285 -2.004,-3.505449 -1.28525,-3.1356405 0.585,0.301437 -1.408,-2.7962743 -1.5565,-2.423471 -0.15925,0.3992539 -0.0445,0.1277613 -0.159,0.4022484 -1.03575,-1.3340072 -2.23875,-3.4101275 -2.9425,-2.8027625 -0.516,0.4456672 -0.484,0.1547109 -0.42525,0.6233352 0.059,0.4686243 0.34725,1.6030044 0.775,2.0421837 -0.009,0.0015 -0.03125,0.1467258 -0.64025,-0.038927 -0.7175,-0.2185915 -0.417,-1.8330745 -1.25875,-1.8096183 -0.483,0.013475 -1.017,-0.044417 -1.39425,0.4546504 -1.2025,1.5905277 -2.08025,1.481232 -3.30775,1.5710641 -0.938,0.068871 -0.007,-1.4632656 -0.8335,-1.7028179 -0.36625,-0.1068004 -1.15625,0.019962 -1.53575,0.4646317 -0.29825,0.3503453 -0.419,0.023456 -0.23275,2.8187322 -0.88825,0.790024 -2.03125,0.247039 -2.25175,0.641801 -0.18775,0.336371 -0.41525,3.6646515 0.20575,5.3400215 0.7875,2.124529 1.566,-1.427333 2.30975,-0.559954 0.22375,0.260513 0.551,1.067505 0.46125,1.206246 -0.395,0.609362 -0.65575,-0.03843 -1.6475,0.438181 -0.4135,0.198629 -1.82325,1.805626 -2.99575,1.686848 0.04375,-0.129259 0.1235,-0.08784 0.21175,-0.666255 0.14,-0.920281 -0.7535,-1.900948 -2.0485,0.01547 -0.09875,0.145728 0.1915,0.806492 0.32975,1.222715 -0.5105,0.266003 -1.35825,1.529142 -3.28725,1.360458 0.116,-1.688345 -0.68725,-3.229465 -0.89,-3.193533 -0.28425,0.05041 -0.58125,0.635812 -0.9,0.945733 0.3855,-1.384413 0.4515,-1.768196 0.67825,-2.289222 0.709,-1.629954 1.1195,-2.397021 1.38975,-4.487614 0.027,-0.208111 0.151,-0.09632 -0.31775,-1.3644505 0.887,-1.6279579 0.5605,-0.488587 0.93725,-0.7291375 0.3755,-0.240051 1.169,-2.3511065 1.0115,-2.9679538 C 12.926749,1.4692544 13.166499,1.3449866 12.85275,0 Z" />
    <path
       id="path10969"
       fill="#5a5a5a"
       stroke="#5a5a5a"
       stroke-width="0.0496632"
       d="m 40.379999,43.468769 c 0.41075,-1.220219 -0.1865,-1.454282 -0.11675,-2.307687 0.1235,-1.516167 0.979,-4.39329 1.1095,-4.546005 -0.25875,-0.122272 -0.5,-5.707834 -0.3855,-6.08463 -0.17175,0.205616 -0.04375,3.872763 0.257,6.08463 -0.604,1.842557 -1.045,4.038453 -1.063,4.522549 -0.03726,1.008116 0.42825,1.408368 0.19875,2.331143 z" />
    <g
       transform="matrix(0.25,0,0,0.49906739,-4.2695,-10.3816)"
       id="g896"
       style="fill:#000000">
      <path
         d="m 32.412,113.827 c -1.185,0.124 -1.599,1.118 -0.879,2.899 -2.435,-0.447 -4.144,-0.953 -6.195,-2.021 -0.48,1.264 2.94,1.971 4.569,2.725 0.09,0.605 0.144,1.238 0.22,1.846 -0.195,-0.256 -0.443,-0.459 -0.703,-0.659 -0.714,-0.552 -1.29,-0.924 -1.933,-0.923 -0.386,10e-4 -0.617,-0.044 -0.835,0.22 -0.707,0.854 -0.31,2.048 0.747,3.032 1.057,0.984 2.498,1.458 3.12,0.791 0.015,-0.017 0.03,-0.027 0.044,-0.045 0.211,0.977 0.466,1.951 0.966,2.856 0.132,0.132 0.777,0.646 0.747,0.527 -0.78,-3.861 -1.039,-4.785 -1.274,-7.382 0.288,0.072 0.703,0.216 1.582,0.352 0.398,2.361 0.119,0.838 1.23,6.415 0.533,0.548 0.883,0.929 1.406,1.493 -0.68,-3.897 -1.222,-4.959 -1.45,-7.732 0.39,0.226 0.708,0.215 1.054,0.396 -0.003,-0.021 0.226,-0.542 -0.132,-1.055 -3.581,-0.706 -3.483,-5.145 2.988,-0.527 0.032,0.022 1.054,-0.438 0.22,-1.011 -2.323,-1.592 -4.307,-2.321 -5.492,-2.197 z m -4.833,4.965 c 0.362,0.026 0.963,0.272 1.362,0.615 0.646,0.555 1.289,1.3 0.791,1.714 -0.494,0.41 -1.292,-0.223 -1.889,-0.836 -0.597,-0.613 -0.932,-1.105 -0.527,-1.449 0.06,-0.053 0.142,-0.053 0.263,-0.044 z"
         stroke-linejoin="round"
         stroke-linecap="round"
         stroke-width="0.1406"
         stroke="#000000"
         id="path33252"
         style="fill:#000000" />
      <path
         d="m 31.279,138.551 c 2.245,0.87 3.332,3.609 3.798,4.205 l 2.302,1.248 -1.851,-3.752 c 0.772,-0.086 6.449,2.748 8.879,5.448 1.968,2.188 2.914,4.53 1.476,6.102 -0.167,0.183 -1.01,0.22 -1.165,-0.319 0.596,-0.69 0.853,-1.719 0.408,-2.906 -0.445,-1.186 -1.411,-2.67 -2.122,-3.26 -1.477,-1.227 -3.42,-2.387 -5.599,-3.216 0.885,2.069 2.06,4.501 3.54,6.911 -1.352,-1.131 -1.916,-2.512 -2.774,-3.524 l -2.357,-1.316 c 0.228,0.331 0.855,1.528 1.227,2.265 -0.854,-1.093 -1.338,-1.918 -2.345,-3.574 -0.447,-0.735 -0.79,-1.477 -1.366,-2.206 -0.505,-0.64 -1.174,-1.19 -1.331,-1.247 -0.102,-0.039 -0.746,0.012 -0.72,-0.859 z"
         stroke-width="0.1406"
         stroke="#000000"
         id="path37146"
         style="fill:#000000" />
      <path
         d="m 172.113,85.299 c -0.967,0.927 -1.264,2.099 -0.941,2.596 0.804,1.244 2.05,-0.029 2.58,-0.719 0.371,-0.481 0.592,-1.152 0.541,-1.706 -0.045,-0.494 -0.558,-1.727 -2.18,-0.171 z m 4.866,2.596 c -0.088,-0.452 -1.49,-5.836 -1.514,-5.91 -0.025,-0.073 -0.043,-0.131 -0.055,-0.173 -0.061,-0.218 -0.43,-0.188 -0.675,-0.234 -0.245,-0.046 -0.484,-0.063 -0.718,-0.048 -0.232,0.014 -0.359,-0.016 -0.379,-0.092 -0.031,-0.109 0.061,-0.231 0.271,-0.366 0.227,-0.144 0.582,-0.275 1.068,-0.396 0.486,-0.121 0.748,-0.08 0.787,0.122 0.122,0.593 0.281,0.922 0.572,2.066 l 1.088,4.28 c 0.111,0.439 0.352,1.723 0.44,2.377 0.088,0.654 -0.042,1.053 -0.211,1.161 -0.132,0.085 -0.477,-1.778 -0.674,-2.787 z m -0.565,-0.766 -2.438,2.766 0.28,1.094 c 0.065,0.235 0.063,0.45 0.135,0.789 0.072,0.339 0.125,0.747 0.156,1.225 0.033,0.478 -0.026,0.76 -0.178,0.845 -0.072,0.007 -0.16,-0.11 -0.264,-0.35 -0.104,-0.24 -0.184,-0.481 -0.237,-0.723 -0.054,-0.242 -0.101,-0.419 -0.141,-0.533 l -0.398,-1.786 -1.257,1.033 c -0.066,0.062 -0.176,0.189 -0.331,0.381 -0.154,0.192 -0.281,0.319 -0.38,0.382 -0.163,0.104 -0.494,0.181 -0.995,0.232 -0.501,0.051 -0.772,0.001 -0.813,-0.15 -0.01,-0.034 0,-0.074 0.029,-0.122 0.027,-0.047 0.057,-0.076 0.088,-0.086 0.504,-0.221 1.077,-0.536 1.72,-0.944 0.487,-0.309 1.177,-0.923 1.933,-1.595 0.752,-0.67 1.371,-1.322 1.892,-1.811 l 1.032,-1.146 z M 172.4,84.296 c 0.471,-0.279 0.98,-0.635 1.46,-0.524 0.479,0.11 0.898,0.697 0.952,1.254 0.064,0.676 -0.04,1.292 -0.371,1.912 -0.332,0.62 -0.799,1.247 -1.33,1.68 -1.371,1.115 -2.192,0.694 -2.592,-0.106 -0.396,-0.792 0.12,-2.458 0.939,-3.342 0.018,-0.022 0.095,-0.098 0.229,-0.228 0.134,-0.13 0.21,-0.21 0.227,-0.24 0.038,-0.074 0.05,-0.136 0.036,-0.186 -0.014,-0.05 -0.053,-0.094 -0.117,-0.133 -0.064,-0.038 -0.102,-0.074 -0.111,-0.107 l 0.011,-0.051 c 0.013,-0.018 0.039,-0.04 0.081,-0.066 0.078,-0.049 0.191,-0.089 0.341,-0.12 0.15,-0.031 0.233,-0.013 0.252,0.055 0.022,0.084 0.009,0.212 -0.044,0.383 z"
         id="text2439"
         style="fill:#000000" />
      <path
         d="m 103.961,31.505 1.01,-0.483 0.758,1.986 2.913,-1.468 c 1.34,4.981 0.802,9.445 -2.849,14.859 -0.476,-0.436 -0.757,-0.975 -0.988,-1.327 4.097,-6.718 3.788,-7.722 3.077,-12.109 l -4.487,2.434 -0.013,3.498 -1.188,0.863 0.049,-4.853 2.404,-1.341 m 9.778,-0.697 3.335,5.569 -0.86,0.628 -2.921,-4.698 c -0.256,0.55 -1.045,1.997 -1.826,2.821 -0.086,-0.111 -0.178,-0.197 -0.273,-0.257 -0.086,-0.111 -0.156,-0.189 -0.213,-0.236 0,0 -0.136,-0.075 -0.408,-0.224 0.787,-1.313 1.144,-1.729 1.729,-3.041 0.514,-1.15 0.944,-1.882 1.032,-3.555 l 1.019,-0.045 c -0.089,1.414 -0.426,2.161 -0.614,3.038"
         id="flowRoot2383"
         style="fill:#000000" />
      <path
         d="m 55.229,31.184 c 0.885,-0.853 1.984,-1.952 1.941,-1.988 -0.162,-0.14 -1.229,0.233 -1.59,0.37 -1.958,1.721 -3.576,3.544 -5.273,5.383 l -0.773,0.12 c 2.392,-2.53 4.829,-5.06 7.95,-7.578 l 0.649,-0.114 -2.068,1.756 c 0.244,-0.063 0.629,-0.189 0.806,-0.226 0.159,-0.032 0.945,-0.258 1.191,-0.146 0.313,0.143 -1.321,1.537 -1.993,2.281 z"
         id="text2537"
         style="fill:#000000" />
      <path
         d="m 58.969,81.749 c -0.134,0.024 -0.26,0.064 -0.359,0.131 -0.199,0.135 -0.321,0.295 -0.364,0.482 -0.037,0.162 -0.01,0.313 0.093,0.472 0.104,0.16 0.286,0.275 0.528,0.304 0.065,0.007 0.179,-0.001 0.321,-0.018 0.146,-0.02 0.237,-0.041 0.264,-0.038 0.188,0.022 0.255,0.172 0.195,0.431 -0.068,0.301 -0.266,0.549 -0.572,0.728 -0.306,0.179 -0.653,0.319 -1.017,0.439 l -0.065,0.306 c 1.415,-0.264 2.248,-0.875 2.466,-1.83 0.069,-0.304 0,-0.595 -0.179,-0.892 -0.179,-0.297 -0.456,-0.48 -0.856,-0.527 -0.167,-0.018 -0.32,-0.012 -0.455,0.012 z m 8.536,-0.472 c -2.23,0.313 -4.12,1.124 -5.375,2.238 -1.255,1.115 -2.066,2.763 -1.883,4.066 0.166,1.176 0.583,2.34 1.685,2.972 1.102,0.632 1.86,0.886 3.091,0.887 l 0.047,0.721 -1.447,0.257 c -0.629,0.088 -1.099,0.064 -1.408,-0.045 -0.309,-0.108 -0.703,-0.478 -0.861,-0.84 l -0.788,0.047 0.222,2.153 6.373,-0.895 -0.079,-1.903 c -2.085,-0.249 -2.477,-0.819 -3.127,-1.34 -0.523,-0.419 -1.091,-1.432 -1.214,-2.311 -0.17,-1.213 0.39,-2.792 1.319,-3.664 0.876,-0.822 1.749,-1.219 3.391,-1.582 1.04,-0.23 2.946,-0.326 4.025,0.244 0.475,0.25 1.708,1.213 1.901,2.591 0.296,2.107 -0.671,4.239 -3.649,5.69 l 0.09,1.794 6.978,-1.007 -0.267,-2.28 -0.649,0.015 c -0.146,0.29 -0.567,0.881 -0.746,1.15 -0.168,0.252 -0.411,0.44 -1.132,0.542 l -2.073,0.287 -0.024,-0.752 c 1.415,-0.502 2.567,-1.248 3.313,-2.137 0.745,-0.889 1.031,-2.446 0.876,-3.547 -0.19,-1.357 -1.035,-2.365 -2.53,-3.042 -1.498,-0.677 -3.897,-0.612 -6.059,-0.309 z"
         id="text2557"
         style="fill:#000000" />
      <path
         d="m 161.449,52.919 c -0.496,0.066 -1.586,0.375 -1.754,0.822 -0.118,0.316 -0.291,0.765 0.789,1.258 0.371,0.169 1.1,-0.34 1.711,-0.366 1.221,-0.052 2.189,2.046 1.615,3.61 -0.4,1.085 -1.649,1.941 -2.94,2.477 -0.895,0.372 -1.572,0.294 -2.188,0.143 -0.67,-0.164 -1.162,-0.625 -1.477,-1.384 -0.217,-0.523 -0.359,-1.106 -0.426,-1.75 0.002,-0.541 0.434,-0.634 0.66,0.592 0.255,0.613 0.722,1.231 1.273,1.361 0.553,0.13 1.223,0.032 2.012,-0.296 0.604,-0.25 1.283,-0.871 1.824,-1.592 0.903,-1.203 0.557,-2.109 -0.044,-2.299 -0.286,-0.09 -1.134,0.487 -1.762,0.425 -1.143,-0.114 -1.999,-1.556 -2.001,-2.071 -0.002,-0.652 0.468,-1.021 0.906,-1.326 0.699,-0.484 1.922,-1.061 1.802,0.396 z m 2.795,6.933 -0.137,1.33 -1.49,-0.141 0.242,-1.248 z m -2.012,1.318 -0.119,1.331 -1.483,-0.126 0.104,-1.325 z"
         id="text2561"
         style="fill:#000000" />
      <path
         d="m 66.152,116.143 -0.277,0.145 c 0.939,0.642 1.555,1.14 1.811,1.516 0.256,0.375 0.547,0.396 0.92,0.043 0.373,-0.354 0.455,-0.633 0.219,-0.81 -0.236,-0.177 -1.129,-0.478 -2.673,-0.894 z m 7.088,-0.134 c 0.175,0.862 0.79,4.597 2.255,10.798 l -1.609,0.047 -0.792,-0.302 0.891,0.854 c 0.654,-0.191 1.392,-0.326 2.207,-0.42 l 12.679,-1.448 -2.348,-0.881 -1.47,0.916 -2.177,-9.57 1.071,-0.461 -1.887,-0.646 -1.298,0.787 -5.57,0.639 z m 1.642,0.622 6.235,-0.697 0.545,2.972 -6.073,0.703 z m -5.067,1.408 -0.601,0.562 -5.98,0.584 0.796,0.327 c 0.549,-0.153 1.16,-0.251 1.843,-0.318 l 3.161,-0.327 c -0.698,1.203 -1.566,2.261 -2.606,3.163 -1.04,0.902 -2.141,1.684 -3.328,2.367 l 0.285,0.125 c 1.674,-0.832 3.053,-1.617 4.106,-2.387 0.295,3.041 0.448,4.899 0.45,5.566 l 1.349,-0.604 c -0.123,-0.622 -0.32,-2.233 -0.576,-4.878 1.299,0.473 2.144,0.871 2.555,1.231 0.411,0.36 0.736,0.417 0.961,0.146 0.224,-0.273 0.283,-0.527 0.199,-0.753 -0.084,-0.226 -0.817,-0.474 -2.221,-0.736 0.641,-0.497 1.307,-1.015 2.007,-1.551 l 0.728,-0.202 -1.628,-0.516 c -0.302,0.764 -0.807,1.51 -1.491,2.211 l -1.153,-0.174 -0.045,-0.561 c 0.56,-0.688 1.143,-1.444 1.752,-2.271 l 0.998,-0.398 z m 5.812,1.86 6.1,-0.706 0.635,3.04 -6.183,0.69 z m 0.616,3.312 6.232,-0.723 0.712,3.434 -6.232,0.724 z"
         id="text2565"
         style="fill:#000000" />
      <path
         d="m 135.103,95.226 c 0.32,-0.099 0.616,-0.12 0.888,-0.063 0.272,0.057 0.436,0.172 0.49,0.347 0.133,0.431 -0.228,0.949 -1.082,1.553 -0.854,0.604 -2.313,1.225 -4.378,1.864 -2.075,0.642 -3.634,0.954 -4.674,0.936 -1.04,-0.018 -1.628,-0.243 -1.761,-0.674 -0.053,-0.169 0.015,-0.355 0.201,-0.556 0.188,-0.201 0.451,-0.354 0.791,-0.459 0.341,-0.105 0.652,-0.134 0.933,-0.085 0.28,0.049 0.708,0.215 1.282,0.5 0.806,0.41 1.849,0.417 3.129,0.021 1.27,-0.393 2.127,-0.987 2.57,-1.783 0.303,-0.561 0.553,-0.938 0.753,-1.133 0.2,-0.198 0.485,-0.353 0.858,-0.468 z m 1.386,4.092 c -0.171,-0.547 -0.909,-0.302 -2.011,-0.067 l -0.084,-0.269 6.609,-2.317 0.082,0.269 c -1.174,0.571 -2.123,1.088 -1.938,1.647 l 1.751,7.807 c 0.082,0.219 0.89,0.061 2.086,-0.222 l 0.083,0.269 -6.488,2.455 -0.082,-0.269 c 1.322,-0.657 2.117,-1.132 1.877,-1.882 l -1.324,-6.236 -8.182,10.198 c 0.425,0.067 1.489,-0.018 2.287,-0.194 l 0.082,0.27 -7.271,2.209 -0.082,-0.27 c 1.531,-0.727 2.307,-1.111 2.235,-1.504 l -1.731,-7.873 c -0.054,-0.456 -1.4,-0.392 -2.521,-0.112 l -0.083,-0.269 7.73,-2.429 0.083,0.269 c -0.82,0.394 -2.871,1.131 -2.659,1.831 l 1.458,6.608 z"
         id="text2569"
         style="fill:#000000" />
      <path
         d="m 177.732,116.47 c -0.322,0.206 -1.773,3.194 -2.62,4.923 l -1.312,1.454 0.086,-3.426 c -0.559,1.03 -1.526,1.255 -1.662,1.103 -0.2,-0.225 0.041,-1.359 0.59,-2.082 0.421,-0.554 1.342,-1.549 1.951,-1.62 0.958,-0.112 0.147,2.568 0.246,3.804 0.795,-1.842 1.741,-3.536 2.863,-5.248 l 0.22,-2.709 c -0.042,-0.51 -0.333,-0.746 -0.884,-0.481 -0.553,0.266 -1.168,0.88 -1.834,1.615 -0.911,1.005 -2.25,2.491 -2.743,3.888 l -1.415,1.318 c 0.217,-2.534 4.01,-6.493 6.432,-8.529 0.545,-0.459 1.1,-0.283 1.264,0.363 0.166,0.65 -0.114,1.461 -0.086,2.986 0.828,-0.791 0.996,-0.787 0.871,0.221 -0.131,1.063 -0.949,2.568 -1.625,3.592 -0.529,0.8 -0.501,-0.103 -0.342,-1.172 z m -4.312,1.925 c -0.373,0.457 -0.561,0.673 -0.521,1.093 0.027,0.31 0.295,0.104 0.619,-0.188 0.331,-0.296 0.548,-0.658 0.533,-1.078 -0.02,-0.519 -0.377,-0.137 -0.631,0.173 z m 5.258,-3.317 c -0.193,0.4 -0.273,0.944 -0.127,1.034 0.129,0.078 0.279,-0.296 0.434,-0.659 0.102,-0.237 0.318,-0.85 0.178,-0.986 -0.132,-0.126 -0.366,0.366 -0.485,0.611 z"
         id="text2601"
         style="fill:#000000" />
      <path
         d="m 130.316,60.954 c 0.017,0.056 0.007,0.115 -0.03,0.178 -0.038,0.063 -0.087,0.103 -0.148,0.122 -0.499,0.188 -0.88,0.426 -1.146,0.714 -0.265,0.288 -0.487,0.75 -0.668,1.388 l -2.384,9.559 c -0.012,0.085 -0.097,0.152 -0.255,0.201 -0.123,0.038 -0.23,0.03 -0.322,-0.024 l -4.227,-3.29 -2.108,5.227 c -0.046,0.095 -0.13,0.162 -0.253,0.2 -0.152,0.046 -0.263,0.04 -0.334,-0.021 l -7.621,-6.474 c -0.477,-0.401 -0.922,-0.647 -1.34,-0.736 -0.418,-0.089 -0.953,-0.06 -1.607,0.089 -0.055,0.017 -0.111,0.012 -0.172,-0.013 -0.061,-0.025 -0.098,-0.063 -0.113,-0.115 -0.041,-0.131 -0.006,-0.213 0.104,-0.247 0.461,-0.141 0.945,-0.273 1.456,-0.398 0.476,-0.115 0.919,-0.235 1.331,-0.361 0.418,-0.128 0.908,-0.293 1.471,-0.495 0.588,-0.211 1.113,-0.387 1.572,-0.527 0.111,-0.034 0.186,0.015 0.227,0.146 0.039,0.131 0.025,0.207 -0.044,0.228 -0.453,0.164 -0.791,0.354 -1.015,0.571 -0.223,0.216 -0.301,0.434 -0.233,0.654 0.034,0.112 0.132,0.235 0.294,0.37 l 6.268,5.248 1.469,-3.851 -3.238,-2.527 c -0.582,-0.451 -1.027,-0.719 -1.34,-0.805 -0.311,-0.086 -0.736,-0.067 -1.277,0.057 -0.048,0.015 -0.1,0.009 -0.156,-0.017 -0.057,-0.026 -0.094,-0.065 -0.109,-0.116 -0.04,-0.131 -0.012,-0.211 0.084,-0.24 0.461,-0.141 0.887,-0.256 1.279,-0.345 0.38,-0.085 0.779,-0.192 1.197,-0.32 0.412,-0.126 0.844,-0.273 1.296,-0.442 0.466,-0.173 0.929,-0.33 1.388,-0.471 0.11,-0.034 0.186,0.015 0.226,0.146 0.04,0.131 0.025,0.207 -0.043,0.228 -0.907,0.323 -1.313,0.642 -1.218,0.955 0.043,0.14 0.215,0.325 0.519,0.554 l 2.124,1.604 0.906,-2.338 c 0.125,-0.329 0.159,-0.585 0.104,-0.767 -0.131,-0.43 -0.662,-0.518 -1.59,-0.265 -0.082,0.025 -0.145,-0.028 -0.184,-0.159 -0.015,-0.047 -0.008,-0.098 0.021,-0.152 0.028,-0.055 0.063,-0.088 0.104,-0.101 0.33,-0.101 0.739,-0.21 1.229,-0.329 0.469,-0.113 0.851,-0.214 1.146,-0.305 0.213,-0.065 0.522,-0.172 0.927,-0.321 0.512,-0.192 0.943,-0.342 1.293,-0.449 0.082,-0.025 0.141,0.019 0.176,0.131 0.045,0.149 -0.008,0.247 -0.158,0.293 -0.524,0.201 -0.925,0.433 -1.201,0.696 -0.275,0.263 -0.569,0.759 -0.88,1.487 l -1.217,3.092 3.813,2.895 1.636,-7.369 c 0.066,-0.271 0.071,-0.502 0.013,-0.693 -0.14,-0.458 -0.675,-0.56 -1.603,-0.307 -0.083,0.025 -0.145,-0.028 -0.185,-0.159 -0.04,-0.131 0.002,-0.215 0.126,-0.253 0.336,-0.103 0.738,-0.21 1.207,-0.323 0.436,-0.103 0.797,-0.198 1.084,-0.286 0.303,-0.092 0.648,-0.213 1.039,-0.363 0.402,-0.154 0.77,-0.281 1.099,-0.382 0.092,-0.031 0.156,0.01 0.191,0.123 z"
         id="text2607"
         style="fill:#000000" />
      <path
         d="m 145.187,140.114 c -0.021,-3.786 -0.076,-3.94 -0.208,-6.634 -4.428,1.7 -11.522,4.574 -12.641,4.791 -1.17,0.228 -2.635,0.102 -2.391,-0.762 0.199,-0.708 1.609,-2.193 2.875,-2.657 -0.405,0.536 -0.694,1.016 0,1.063 0.892,0.061 4.592,-1.49 6.398,-2.082 1.789,-0.587 5.521,-2.623 6.624,-2.18 1.12,0.451 0.882,4.145 0.882,6.814 0.001,0.38 0.115,0.701 -0.063,0.971 -0.325,0.5 -0.958,0.557 -1.476,0.676 z"
         id="path2724"
         style="fill:#000000" />
      <path
         d="m 83.363,153.66 c 0.276,0.33 1.403,0.373 1.981,0.571 0.579,0.198 3.501,0.315 4.41,0.253 1.026,-0.07 2.216,-0.533 2.75,-0.904 0.459,-0.317 0.728,-0.688 0.699,-1.102 -0.064,-0.938 -2.606,-1.73 -4.619,-2.158 -1.843,-0.391 -5.326,-0.01 -7.9,0.089 -3.184,0.122 -5.569,0.262 -8.387,0.286 -0.338,0.002 -0.784,-0.311 -0.782,-0.625 0.003,-0.475 0.675,-0.66 0.758,-1.268 0.02,-0.144 0.039,-0.277 -0.045,-0.31 -0.05,-0.019 -0.517,-0.038 -0.749,-0.005 -0.179,0.027 -0.329,0.123 -0.895,0.146 -0.232,0.01 -0.668,0 -0.965,-0.128 -0.261,-0.112 -1.051,-0.552 0.049,-0.737 0.39,-0.065 2.347,-0.352 3.133,0.311 0.803,0.676 -0.072,1.525 -0.072,1.525 0,0 2.511,0.003 3.801,-0.035 3.388,-0.103 11.173,-0.786 11.173,-0.786 0.527,-0.036 1.762,-0.397 2.083,-0.595 0.301,-0.184 0.521,-0.401 0.431,-0.582 -0.379,-0.76 -0.868,-0.73 -1.895,-0.915 1.527,-0.323 3.148,0.054 3.233,0.956 0.1,1.063 -1.098,1.646 -2.437,2.178 1.419,0.221 3.218,0.806 4.082,1.311 0.865,0.506 1.439,0.916 1.482,1.541 0.044,0.635 -0.284,1.193 -1.093,1.711 -0.922,0.582 -2.147,1.006 -4.222,1.096 -1.713,0.073 -4.599,-0.369 -5.631,-0.815 -0.951,0.584 -2.782,1.21 -4.463,1.325 -1.515,0.105 -3.691,-0.14 -4.405,-0.508 -0.909,-0.467 -1.469,-0.793 -1.509,-1.376 -0.032,-0.46 0.099,-0.927 0.801,-1.106 0.286,-0.072 1.356,-0.307 2.599,-0.225 1.57,0.104 3.349,0.793 2.332,1.661 -0.234,0.2 -0.641,0.144 -1.171,-0.009 1.156,-1.217 -3.406,-1.022 -3.368,-0.462 0.023,0.337 0.332,0.604 0.925,0.804 0.604,0.21 2.759,0.347 3.629,0.287 0.929,-0.064 2.404,-0.471 2.964,-0.744 0.56,-0.273 1.038,-0.295 1.293,-0.656 z m -12.06,-5.578 c 0.003,-0.104 -0.424,-0.121 -0.662,-0.117 -0.235,0.002 -0.641,0.053 -0.638,0.137 0.003,0.084 0.386,0.188 0.62,0.185 0.231,-0.004 0.677,-0.104 0.68,-0.205 z"
         id="flowRoot2567"
         style="fill:#000000" />
      <path
         d="m 143.754,40.094 c -2.576,-5.508 -3.352,-6.882 0.062,-7.438 -1.009,-0.527 -1.292,-0.976 -1.95,-0.798 -1.506,0.406 -3.648,-1.188 -4.617,-1.593 0.963,-0.372 2.352,-0.729 2.998,-0.779 0.131,-0.011 1.447,0.511 1.611,0.486 -0.244,-0.546 -2.668,-2.069 -3.053,-1.98 -2.09,0.484 -5.148,1.357 -6.493,1.711 0.439,0.938 4.979,1.489 7.333,2.714 0.02,0.792 1.092,6.117 4.109,7.677 z"
         id="path2658"
         style="fill:#000000" />
      <path
         d="m 30.719,81.217 -0.655,1.561 c 0.03,0.188 0.22,1.654 -0.372,2.778 l 2.04,-0.035 c 0.033,-0.761 0.837,-1.978 -0.776,-2.733 l 0.527,-1.438 1.905,-0.044 c -0.813,1.311 -1.208,3.487 -1.196,4.201 l 0.668,-0.015 c -0.734,2.094 -1.008,3.223 -1.198,6.109 -1.803,-1.697 -5.234,-1.79 -5.656,-1.562 0.078,-1.116 1.066,-3.005 1.232,-3.294 l -0.386,-0.056 0.521,-1.209 1.801,0.086 c 0.275,-0.512 0.666,-1.071 0.464,-2.715 -0.808,-0.064 -1.475,-0.137 -1.734,0.017 -0.455,0.27 -0.824,0.772 -0.959,2.2 -0.13,-1.377 -0.115,-2.403 0.278,-3.009 0.198,-0.315 0.53,-0.507 0.796,-0.76 z m 0.768,6.261 c -0.531,-0.821 -3.277,-0.788 -3.59,-0.771 -0.445,0.381 -0.819,1.515 -0.958,2.004 1.738,-0.222 3.731,1.319 4.422,2.004 -0.028,-0.944 0.163,-2.175 0.126,-3.237 z m 1.99,-6.897 c -0.341,0.02 -1.07,-0.662 -1.8,-1.364 -0.917,-0.884 -2.663,-1.534 -3.31,-0.772 -0.165,0.194 -0.296,0.377 -0.285,0.78 0.005,0.168 0.142,0.37 0.382,0.466 0.185,0.073 0.448,0.122 0.804,0.141 -0.081,0.631 -0.131,1.063 -0.462,1.065 -1.354,0.011 -1.701,-1.254 -1.603,-1.866 0.114,-0.706 0.277,-0.971 0.546,-1.311 0.542,-0.686 1.161,-0.71 1.737,-0.744 1.49,-0.087 2.941,2.455 3.991,3.605 z"
         id="text2170"
         style="fill:#000000" />
      <path
         d="m 34.515,56.854 2.883,-5.56 1.7,-0.429 0.723,0.568 -1.982,3.961 c -0.197,0.393 -0.084,0.814 0.427,0.785 0.549,-0.031 1.382,-0.257 1.597,-0.714 l 1.535,-3.268 -0.606,-1.095 1.715,-0.82 0.357,0.399 0.567,-0.031 -1.046,0.622 -0.37,-0.492 -0.702,0.327 0.588,1.049 -1.503,3.212 c -0.433,0.924 -2.276,1.376 -2.882,1.093 -0.343,-0.161 -0.239,-0.776 -0.074,-1.118 l 1.813,-3.777 -0.334,-0.31 -1.275,0.293 -1.86,3.511 c 0.315,-0.208 1.167,-0.469 0.621,0.52 -0.311,0.564 -1.379,1.366 -1.379,1.366 z m 0.663,-0.546 0.427,-0.834 c 0.53,-0.434 0.729,-0.36 0.512,0.028 -0.157,0.28 -0.581,0.73 -0.939,0.806 z"
         id="path2576"
         style="fill:#000000" />
    </g>
    <path
       style="fill:url(#path33245_1_);stroke-width:0.353223"
       id="path33245"
       fill="url(#path33245_1_)"
       d="m 15.104,41.129641 c -0.507,0.792019 0.588,1.40687 0.80025,2.156969 0.2125,0.750597 -0.503,1.549604 -0.48825,1.552598 0.021,0.004 0.806,-0.946231 0.60575,-1.662892 -0.2005,-0.71716 -1.2485,-1.360458 -0.91775,-2.046675 z M 12.86575,0.23156727 c 0.0135,-0.0169683 -0.05625,0.0439179 -0.1175,0.0903312 -0.01075,0.0409235 -0.588,0.54298534 -0.9045,1.11940813 -0.01225,0.133251 0.2275,0.4336896 0.841,-0.1806624 C 12.58725,1.5520996 12.0025,2.7788072 11.6175,3.2464334 11.4505,3.4495538 11.493,2.9754398 11.24675,3.192035 10.8715,3.5224176 9.8695,4.9911729 9.79975,6.1345365 9.76725,6.671533 10.9455,4.9627261 10.885,5.4483185 10.80925,6.0561825 10.31875,8.600428 9.429,9.8530875 8.62825,10.144543 8.58325,10.129571 8.03625,10.340676 c -0.71275,0 1.36725,-2.357594 0.398,-2.4549125 C 7.213,7.761995 7.01725,9.0605685 6.743,10.124081 7.05375,9.0760395 7.298,7.783954 8.45225,7.9216965 c 0.797,0.095322 -1.21,2.4913445 -0.434,2.4913445 C 8.565,10.202435 8.64625,10.19944 9.447,9.9074855 10.33675,8.6548265 10.84525,6.065665 10.921,5.375954 10.97475,4.8873669 9.7755,6.614639 9.81775,6.080138 9.8965,5.081005 10.891,3.5653374 11.26475,3.2279679 c 0.21,-0.1896456 0.1765,0.311418 0.34375,0.1082976 0.38475,-0.4681252 1.04675,-1.8111156 1.1575,-2.2023844 -0.61375,0.614352 -0.8895,0.4401775 -0.87725,0.3069265 0.30175,-0.5484751 0.91375,-1.12839142 0.977,-1.20924033 z M 6.7435,10.12458 C 6.511,10.908615 6.2435,11.568382 5.53175,11.370252 6.08275,10.059202 6.8245,8.5430355 7.295,7.3447745 6.98775,7.797429 6.983,7.7135855 7.12325,7.398674 6.913,7.8383525 6.8545,8.027499 7.19575,7.524938 6.61225,8.7955635 6.04675,10.113102 5.4955,11.424152 6.28425,11.624777 6.534,10.937062 6.7435,10.12458 Z M 12.712,0.33986489 C 12.6485,0.37679589 12.4835,0.49407671 12.1785,0.70118965 11.41525,1.4782376 10.699,2.3715682 9.91775,3.1022029 9.358,4.1013358 9.02275,4.488113 8.5885,5.286621 8.67025,4.924797 8.57625,4.9712102 8.3985,5.1962895 8.55,5.028104 8.62925,5.03559 8.55225,5.376952 8.9865,4.5784442 9.376,4.1377677 9.93575,3.1386348 10.717,2.4080002 11.43325,1.5151686 12.1965,0.7376216 12.49175,0.51154405 12.61325,0.41372686 12.712,0.33986489 Z M 29.57775,1.4413066 c 0.601,0.6502848 1.326,1.7741846 2.03475,2.5452437 C 31.21875,3.4615314 30.54975,2.3900337 29.57775,1.4413066 Z m -2.478,0.5953874 c -0.18,-0.00449 -0.40475,0.048909 -0.687,0.1447296 C 28.274,1.6753692 26.9205,4.8928567 29.3155,3.9506174 27.465,4.2305942 28.36025,2.0691334 27.09975,2.036694 Z M 21.312,2.3441195 c -0.54125,0.072365 -1.16375,0.4531532 -1.37475,0.8304482 0.309,-0.4451682 1.378,-0.8898372 1.80875,-0.577421 0.3815,0.2764833 -0.27375,0.7735544 0.32575,1.4802338 0.24075,0.2839694 1.13325,0.2924535 1.917,0.017966 C 23.21025,4.2914805 22.375,4.0758835 22.19825,3.9511166 21.9005,3.740011 22.2835,2.6715078 21.918,2.4344508 21.75775,2.3301457 21.541,2.3131774 21.312,2.3441195 Z m 3.87975,0.8658819 c -0.08475,0.6138529 1.1305,3.6836166 2.0165,3.7370166 0.2655,0.01597 0.37775,-0.5604525 0.56075,-0.9207795 0.1825,-0.3603265 0.302,-0.592393 0.40675,-0.631819 0.0825,-0.030945 -0.21325,-0.265504 -0.40675,0.017965 -0.19375,0.28347 -0.3715,1.0041235 -0.53375,1.082976 -0.578,0.281973 -1.72525,-2.814241 -2.0435,-3.2853606 z m -5.3265,0.1447296 c -0.0067,0.039925 -0.01075,0.070867 0,0.1082976 -0.0055,-0.036931 -0.0067,-0.06937 0,-0.1082976 z M 31.8475,3.6796238 c -0.0065,0.032939 0.095,0.1621969 0.1535,0.3069265 -0.02125,-0.091329 -0.05275,-0.1801633 -0.1085,-0.2704945 0.16725,-0.070368 1.29875,1.7088067 1.44675,1.9678227 0.24325,0.424207 -0.25125,0.018965 -0.226,0.378792 0.04225,0.59938 0.9765,2.229833 1.76375,3.7370165 -0.40975,0.279977 -0.92225,1.283602 -0.92225,1.895458 -5e-4,1.061517 0.7765,1.478737 1.03075,2.148485 0.24075,0.634315 -0.15725,0.994642 -1.07625,1.516167 0.51025,0.43868 1.55125,-0.190644 1.3565,-1.389903 -0.2145,-1.321031 -0.919,-1.024585 -1.058,-2.22035 -0.05225,-0.452155 0.71,-1.601508 0.84125,-1.696829 0.86675,1.285098 2.121,4.085864 2.0255,4.711695 -0.03225,0.211105 -0.4175,-0.552468 -0.624,-0.324893 -0.36075,0.397257 0.967,4.439204 1.38375,4.802026 0.151,0.131754 0.25125,-1.982794 0.1265,-1.985789 -0.2495,-0.006 -0.02049,1.63195 -0.172,1.480234 -0.16025,-0.1607 -1.192,-2.800267 -1.1665,-3.754983 0.0093,-0.338368 0.65525,0.413727 0.642,-0.0544 C 37.24325,14.161536 36.026,11.398699 35.0305,9.709356 33.59425,6.9869435 33.169,6.2907445 33.249,6.0626705 c 0.08675,-0.2200885 0.434,0.2031205 0.36175,0.017965 -0.169,-0.431194 -1.3155,-2.1983918 -1.63675,-2.3645812 -0.08875,-0.045914 -0.1235,-0.0534 -0.1265,-0.036432 z m 0.1535,0.3069265 c 0.02625,0.1122901 0.02875,0.2051167 0.018,0.2704945 0.003,-0.00599 0.0068,-0.01098 0.0093,-0.017966 0.028,-0.078354 0.0063,-0.1701819 -0.02725,-0.252528 z m 0.018,0.2709936 c -0.019,0.040923 -0.04775,0.060387 -0.081,0.053899 0.0083,0.00798 0.0185,0.01048 0.02675,0.017966 0.03,0.026949 0.04425,-0.00898 0.05425,-0.071865 z M 31.6485,4.0224831 c 0.11625,0.1512175 0.21525,0.2689974 0.28025,0.2889601 C 31.8345,4.2251045 31.7435,4.1242929 31.6485,4.0224831 Z m -3.44525,1.6249634 c 0.5415,0.6263295 1.2325,1.882981 1.38325,2.7803045 C 29.709,9.153894 29.292,8.88839 28.77275,8.896874 29.2715,9.2896405 29.921,9.3954425 29.858,8.4996165 29.77825,7.3662345 28.84125,5.642955 28.20325,5.6474465 Z M 19.7565,5.882008 c -0.70925,0.464133 -1.34125,0.1871505 -2.116,0.28896 -0.0017,0.04941 -0.0057,0.140238 -0.009,0.198629 0.6875,-0.090331 1.3475,0.1072995 2.125,-0.487589 z m -2.134,0.613853 C 17.557,7.3936835 17.4695,8.2969955 17.48675,8.932807 17.48995,8.2530775 17.5805,7.175591 17.6225,6.495861 Z M 8.1905,8.012028 C 7.852,8.051953 7.3745,8.407289 7.277,8.806543 c -0.41675,1.704315 -1.02,3.29634 -1.83575,2.779806 -0.5125,0.865382 -1.562,3.528406 -1.5465,4.73016 0.0035,0.271992 0.6095,-1.322029 0.66025,-1.047043 0.0835,0.452654 -0.18925,1.56258 -0.425,2.328648 -0.202,0.656274 -0.45475,1.520659 -0.7415,1.877492 -0.055,0.06837 -0.1255,-0.945234 -0.208,-0.722151 -0.57525,1.557091 -1.24175,3.928659 -1.22075,5.451812 0.012,0.865882 0.79475,1.465761 1.32925,0 0.18725,-0.513041 -0.0215,-2.223844 0.208,-2.689973 0.1375,-0.278978 0.39675,-0.642799 0.7145,-0.758083 0.30875,-0.11229 0.9985,0.12826 0.9495,0.758083 -0.09025,1.161829 -0.903,2.017231 -0.59675,2.617609 0.5045,0.989151 2.0915,0.759081 2.85775,-0.126264 -0.3645,-2.367077 0.4625,-6.457932 1.32025,-6.986445 0.2965,-0.182658 0.566,0.583909 0.9405,0.379292 0.689,-0.377295 0.8485,-1.726774 0.85925,-2.56371 0.01,-0.793018 0.10825,-1.769693 -0.235,-1.606498 -0.44,0.20911 -1.1875,1.865514 -1.52825,1.227207 -0.55375,-1.036563 0.2725,-2.938509 0.651,-4.332404 -0.378,0.0055 -1.542,0.709674 -1.7635,0.324893 -10e-4,0.692706 1.193,-0.08384 1.6095,-0.09033 -0.3785,1.393895 -1.1175,3.158098 -0.59675,4.260538 0.26625,0.563447 1.07025,-0.819968 1.51025,-1.029077 0.3435,-0.163195 0.245,0.61535 0.235,1.408368 C 10.41375,15.834909 10.3355,16.859495 9.6465,17.23679 9.272,17.441906 9.0385,16.585008 8.742,16.767666 7.88425,17.296179 6.88575,21.530765 7.25,23.898341 6.484,24.784186 5.20425,24.732782 4.69975,24.079003 4.34,23.612375 5.17025,22.568825 5.2605,21.406997 c 0.049,-0.629823 -0.686,-0.924772 -0.99475,-0.812482 -0.3175,0.115284 -0.7035,0.569436 -0.841,0.848414 -0.2295,0.466129 -0.0025,2.221349 -0.217,2.689974 C 2.673,25.30072 2.044,25.035216 2.032,24.168835 2.01125,22.645183 2.66175,20.486217 3.16225,19.077849 c 0.0805,-0.226077 0.153,0.700192 0.208,0.631819 C 3.65675,19.352835 3.943,18.388637 4.166,17.759812 4.42275,17.035665 4.75725,15.471089 4.64525,14.96204 4.58625,14.693542 3.9335,16.291057 3.967,16.02705 4.1195,14.825795 4.96475,12.632394 5.47725,11.766512 6.293,12.282548 6.896,10.673055 7.313,8.96874 7.4245,8.5125925 8.03175,8.1303065 8.362,8.192191 8.41525,8.202171 8.44575,8.220141 8.4705,8.2460905 8.49275,8.1298075 8.4585,8.0544485 8.32575,8.029495 8.28475,8.02251 8.23875,8.00654 8.1905,8.01203 Z M 8.47075,8.2470885 C 8.39925,8.62089 7.723,9.406921 7.62975,10.214911 c -0.012,0.104306 0.00475,0.179665 0.036255,0.234562 0,-0.02545 -0.0035,-0.04242 0,-0.07236 0.11075,-0.9587085 1.03825,-1.8844785 0.80475,-2.1300195 z M 28.42925,8.48165 c -0.2345,-0.01547 -0.3745,0.4751125 -0.37075,0.975178 0.006,0.793018 0.93225,4.534526 1.673,5.036588 -1.23475,1.563079 -1.51275,1.125896 -3.32825,1.696829 1.17775,-0.149221 2.73,0.328886 3.78025,-1.841059 C 29.2505,13.456354 28.6805,11.386722 28.393,9.4747945 28.28525,8.760629 28.478,8.835489 28.69125,8.680279 28.5945,8.5445325 28.50725,8.48714 28.42925,8.48165 Z m -10.9425,0.57792 c 0.004,0.189147 0.0155,0.331381 0.04525,0.397258 0.0105,0.022955 0.017,0.03194 0.027,0.053899 C 17.5385,9.4398595 17.51675,9.369491 17.50475,9.2761655 17.49645,9.2107875 17.491,9.1339315 17.48675,9.05957 Z M 19.621,9.095505 c -0.0405,-0.002 -0.0815,0 -0.1175,0.017965 -0.59375,0.2994405 -1.0225,1.492212 -1.43775,1.444301 -0.1775,-0.349347 -0.27025,-0.527015 -0.35275,-0.6862175 0.3435,0.7780465 0.43675,0.9841605 0.77775,0.7580835 0.513,-0.340364 0.8575,-1.404376 1.447,-1.35397 0.0345,0.003 0.067,0.014475 0.0995,0.03593 C 19.90425,9.191821 19.7595,9.102987 19.621,9.095501 Z m -14.48725,2.238318 -0.009,0.03593 0.19,0.144729 c -0.33475,0.745108 -1.51,2.964461 -1.51925,4.729662 -7.5e-4,0.158204 0.0225,0.248536 0.05425,0.306926 0.0615,0.113289 0.19825,-0.137243 0.5155001,-0.794515 0.00625,-0.01298 0.077,-0.170681 0.0815,-0.01797 0.0145,0.500066 -0.73875,2.717422 -0.91325,3.123164 -0.09475,0.21959 -0.11225,0.212104 -0.14475,0.03593 C 3.31175,18.481464 3.286,18.280839 3.244,18.302298 3.16075,18.34422 2.58175,19.879351 2.15875,21.750355 2.025,22.34175 1.89575,23.039446 1.815,23.682245 1.75125,23.580435 1.60075,23.32641 1.53475,23.284987 L 1.5165,23.411251 c 0.10425,0.08933 0.197,0.191143 0.3255,0.559455 C 1.98525,22.2614 2.68925,19.54298 3.22575,18.428562 3.3,18.274351 3.381,19.304426 3.46075,19.132747 c 0.426,-0.914791 1.04,-2.96995 1.02175,-3.448057 -0.01675,-0.439678 -0.442,0.774553 -0.57875,0.812482 -0.0225,0.006 -0.07775,-0.04242 -0.0815,-0.126264 -0.06275,-1.387907 0.819,-3.386173 1.53725,-4.855926 z m 27.229,0.812481 c -1.03025,-0.04392 -2.34025,1.617977 -2.1885,1.93189 0.213,0.43868 1.368,-2.136507 2.8395,-1.58903 -0.186,-0.227575 -0.41325,-0.332379 -0.651,-0.34286 z m 0.14475,0.487589 c 1.31175,0.407239 -0.12275,3.680123 1.74525,3.159097 -1.542,-0.250033 -0.08575,-3.310813 -1.74525,-3.159097 z m -7.6685,0.378792 c -1.559,0.102808 -3.08425,1.521158 -2.6045,2.743873 0.2345,0.597383 1.27225,1.208741 1.04,1.841059 -0.517,1.409866 -1.80025,1.559586 -4.0875,2.040188 3.41575,-0.148223 3.655,-0.544982 4.41325,-1.93189 0.517,-0.94723 -0.8495,-1.456279 -1.058,-2.41898 -0.226,-1.044548 1.82925,-2.385043 3.30075,-2.130518 -0.226,-0.08285 -0.4595,-0.132253 -0.69625,-0.144231 -0.104,-0.0045 -0.20375,-0.006 -0.30775,4.99e-4 z m 0.37975,0.379291 c -0.07125,-0.0015 -0.1425,0.0095 -0.217,0.01847 -0.35675,0.04192 -0.73775,0.199627 -1.013,0.469124 0.705,-0.199128 1.30075,-0.509548 1.60975,0.07237 0.15825,0.297943 -0.2085,1.289091 -0.16275,1.859525 0.08875,1.10743 0.35075,0.916287 2.84875,0.631819 -2.26475,-0.145728 -2.83425,0.551469 -2.28775,-2.184418 0.11325,-0.567939 -0.28025,-0.853405 -0.778,-0.86688 z m 5.06425,1.35397 c -0.01975,-10e-4 -0.0355,0.01248 -0.04525,0.03594 -0.192,0.457645 1.3365,2.446428 1.30225,4.548999 -0.01375,0.825458 0.0053,0.895826 -0.65125,0.776549 0.54475,0.344856 0.9955,0.479105 1.004,-0.704184 0.014,-1.988284 -1.31375,-4.643323 -1.60975,-4.657297 z m 7.822249,2.9969 c 0.48675,1.500196 0.85725,2.285728 1.266,4.585431 -0.61775,0.896824 -1.20675,2.441937 -1.1575,3.772949 0.0375,1.012608 0.688,1.550104 0.669,2.184418 -0.0245,0.835938 -0.7045,2.074124 -1.15725,2.310682 0.66175,0.868877 1.47125,-1.544114 1.46475,-2.653541 -0.0033,-0.55097 -0.52625,-0.773055 -0.66025,-1.84106 -0.15075,-1.201754 0.80775,-3.114679 0.89525,-3.267394 0.365,0.634315 0.89725,7.466547 1.24775,4.440702 -0.376,2.02272 -0.69525,-2.893094 -1.13025,-4.548999 0.20075,-0.238555 0.1085,-0.162696 0.2895,-0.487589 -0.0275,-0.125266 0.0025,-0.240551 -0.09025,-0.433191 -0.22125,0.336372 -0.15875,0.198629 -0.2805,0.433191 -0.28275,-1.896456 -0.7535,-3.51593 -1.35625,-4.495599 z m -14.993499,1.20924 c -1.88775,0.972183 -2.419,0.926768 -3.67175,1.06501 1.286,0.375299 2.246,-0.157206 3.67175,-1.06501 z m -4.65725,0.848415 c -0.121,0.002 -0.288,0.01697 -0.5155,0.03643 0.55,0.01098 0.737,0.374799 0.7415,0.360825 0.60975,1.079483 1.0015,2.960967 0.96775,4.549499 -0.03,1.401381 -0.26825,2.273751 -1.38375,1.660896 -1.07275,-0.589399 -2.33175,0.200625 -2.107,2.707939 0.1515,1.689843 0.18575,3.925165 1.69125,3.701084 -0.929,0.02295 -1.48,-2.217855 -1.41075,-4.134274 0.09375,-2.622599 1.295,-2.429959 2.27875,-1.967324 0.53425,0.250532 1.02875,0.376796 1.31125,-2.003755 0.10725,-0.901316 -0.24425,-2.871135 -1.13925,-4.874391 -0.09525,-4.99e-4 -0.0715,-0.04342 -0.43425,-0.03693 z m 11.90075,0.198627 c -0.098,-0.005 -0.185,0.007 -0.27125,0.01797 -0.517,0.06787 -0.81525,0.475611 -0.841,1.281605 -0.0575,1.826088 0.723,5.025609 1.845,4.459167 -1.1185,-1.002626 -1.49325,-2.758345 -1.447,-4.657796 0.01975,-0.811483 0.43675,-1.013606 1.031,-1.047043 -0.111,-0.02645 -0.21875,-0.04891 -0.31675,-0.0539 z m -12.4525,0.0544 c -1.3215,0.05939 -3.2505,1.719287 -3.8705,2.346615 -0.294,0.297943 0.99375,1.925901 0.7415,2.635575 -0.69925,1.96882 -2.803,2.308685 -3.744,1.805126 -0.993,-0.531506 0.87275,-3.164087 0.3345,-3.826848 -0.68325,-0.842426 -2.1370005,-0.165691 -3.7077505,1.173307 0.171,2.86315 0.23675,3.321792 -0.0815,5.271649 -0.11275,0.69021 -0.52825,2.449922 -1.483,0.974678 -0.509,-0.786031 -0.95975,0.05839 -1.06725,1.606997 -0.14775,2.13002 0.06325,4.216621 1.02175,2.545244 0.3805,-0.66376 0.97725,-0.334375 1.08525,0.28896 0.4545,2.625594 0.823,4.42523 0.208,6.733916 C 10.418,39.951342 11.6095,40.993894 12.05125,41.337752 c 0.594,0.462635 0.0425,1.615481 -0.443,2.942501 0.71625,-1.486722 1.073,-2.524782 0.5425,-3.195529 C 11.20175,39.883968 8.96,40.502812 7.54775,41.265387 8.0315,39.206734 7.5355,36.336597 7.21325,34.820431 7.02575,33.938579 6.344,33.628658 5.9925,34.351307 4.96525,36.461863 5.098,33.192473 5.1965,31.82403 c 0.062,-0.859893 0.34325,-1.842058 0.832,-1.155341 0.521,0.731633 1.02425,1.45578 1.63675,-0.902813 0.43775,-1.685849 0.3925,-3.650678 0.199,-5.56011 1.55525,-1.218722 2.66675,-1.816605 3.382,-0.884347 0.32075,0.418219 -1.154,2.390533 -0.651,3.339759 0.5405,1.020094 3.36575,0.687216 4.187,-1.281605 0.53125,-1.27362 -1.09075,-2.542249 -0.615,-3.014866 0.922,-0.91529 2.77725,-2.322161 4.2595,-2.220351 -0.158,-0.06438 -0.33525,-0.09931 -0.524,-0.09083 z M 30.518,20.504683 c -0.106,0.0025 -0.2115,0.02445 -0.32575,0.07237 0.5025,0.340863 0.7075,0.410732 1.30225,0.198628 C 31.127,20.65041 30.836,20.496199 30.518,20.504683 Z M 4.347,21.010238 c -0.26525,0.004 -0.53925,0.12826 -0.69625,0.415224 -0.29,0.529012 -0.07,2.082608 -0.3075,2.924535 C 3.008,25.538276 2.3225,25.743393 1.824,24.67489 c -0.17,2.011241 -0.60225,6.110581 -0.92225,5.939401 0.007999,0.01048 0.0095,0.04741 0.0179995,0.0544 0.3175,0.259016 0.78875,-3.604265 0.9585,-5.596542 0.49275,1.047543 1.29625,0.334376 1.62775,-0.830448 0.235,-0.824958 -0.0865,-2.353601 0.25325,-2.725906 0.39025,-0.4277 1.4047505,-0.374799 1.13025,0.28896 -0.271,0.655276 -0.76425,1.704814 -0.55175,2.653542 0.2465,1.100443 2.0925,1.195266 3.0475005,0.09033 0.075999,2.208872 0.1569995,4.873393 -0.5425005,5.776705 C 6.495,30.773992 6.1007495,29.421021 5.66725,29.386585 4.7234995,29.309729 4.1734995,34.875328 5.3235,35.831541 5.72425,36.164419 5.945,34.945198 6.6165,34.730099 6.97725,34.614815 7.43725,39.858017 7.0415,41.048293 6.41375,42.936764 4.01525,41.636194 3.587,40.651534 3.366,40.142984 4.28325,38.852396 4.012,38.033926 3.55125,36.644023 2.24175,36.150944 1.8415,36.932484 1.34525,37.902172 2.22325,39.941361 1.8325,40.57867 1.57725,40.995391 0.987,40.310671 0.7655,39.36943 0.81125,37.503916 1.014,31.292523 0.5575,32.924474 0.55425,32.23077 0.5465,31.744179 0.5665,31.29951 c -0.03,0.581414 -0.03925,1.194768 -0.03625,1.877492 0.45,-1.620971 0.18975,4.519055 0.16275,6.408524 0.2965,1.143363 0.9265,1.724777 1.18475,1.299572 C 2.273,40.234314 1.42975,38.137732 1.932,37.14858 2.33675,36.35107 3.24925,36.930987 3.831,38.069359 4.1885,38.768054 3.29525,40.071119 3.42425,40.704934 3.6205,41.671129 6.411,43.528657 7.2585,41.120158 7.677,39.930382 7.16925,34.250496 6.6255,34.513005 5.95675,34.835902 5.74375,35.969783 5.3505,35.578015 4.284,34.5155 4.93375,29.716968 5.685,29.746912 c 0.43875,0.01747 0.86,1.342491 1.21175,0.884347 0.7075,-0.921777 0.6735,-4.119302 0.59675,-6.372591 C 6.4405,25.520809 4.5795,25.06017 4.446,24.43933 4.237,23.466149 4.75975,22.400141 5.03375,21.73139 5.20775,21.309179 4.789,21.00375 4.347,21.010238 Z m 28.00675,2.238317 c -0.656,0.140238 -1.358,1.741246 -1.24775,2.094087 0.19775,0.634315 0.8715,-1.99078 1.51025,-2.058154 -0.045,-0.02196 -0.08975,-0.03144 -0.13575,-0.03593 -0.04325,-0.0045 -0.083,-0.009 -0.12675,0 z M 1.5075,23.718178 c -0.0405,-0.0045 -0.076,0.03393 -0.0905,0.126264 -0.0385,0.249034 0.40375,-0.16619 0.27125,1.101441 C 1.5775,26.006901 1.393,28.254201 1.028,29.657579 0.9835,29.82826 0.90475,28.560628 0.82,28.628502 c -0.2735,0.219589 -0.53575,4.712194 -0.35275,5.181317 0.003,0.008 0.105,-0.425704 0.1355,-0.216595 0.17425,1.188778 -0.0645,1.816605 -0.05425,5.07302 -0.04025,-0.291455 -0.36525,-1.623965 -0.389,-1.101442 -0.007,0.15521 0.23875,1.147356 0.425,1.552599 -0.02275,-1.778676 0.28675,-4.741639 0.06325,-5.867036 -0.02875,-0.14473 -0.131,0.260513 -0.16275,0.324893 -0.0385,-1.41286 0.00575,-3.658164 0.2985,-4.657796 0.05725,-0.195136 0.122,1.344487 0.18075,1.173307 0.3955,-1.153345 0.623,-3.761471 0.76875,-5.180818 0.0775,-0.750099 -0.10375,-1.177799 -0.2255,-1.191773 z m 31.01825,0.01796 c -0.03275,0.0085 -0.06025,0.04043 -0.08125,0.09033 -0.0215,0.05091 2.047,4.088859 1.30225,6.498855 -0.70175,2.269759 -3.796,2.596149 -4.0605,3.050799 1.1705,-0.436684 3.731,-0.194636 4.48525,-3.28536 0.53075,-2.174936 -1.15575,-6.481389 -1.64575,-6.354625 z m -14.9575,3.050798 c -0.14075,-0.002 -0.27,0.04741 -0.37975,0.216596 0.44475,-0.05739 1.535,0.90431 2.324,0.162696 -0.939,0.189146 -1.52225,-0.372804 -1.94425,-0.379292 z m 19.315999,0.01797 c -1.0195,0.0519 -2.55575,2.216359 -2.315,2.761839 0.90125,-0.824958 0.93225,-1.830579 2.713,-2.653541 -0.11825,-0.09033 -0.252,-0.115285 -0.398,-0.108298 z m 0.2895,0.523522 c 0.37,1.382916 -0.6245,5.016625 0.70525,3.520421 -0.99775,0.370807 0.0275,-3.169577 -0.70525,-3.520421 z M 28.8995,29.350649 c -1.61675,-0.05639 -3.90325,1.708807 -3.92475,3.501956 -0.01325,1.110425 1.84175,1.628457 1.09425,2.744372 -1.90425,2.841689 -4.498,1.775681 -4.567,2.454912 1.15625,0.01247 3.44625,0.303433 5.06425,-2.599642 0.61125,-1.09695 -1.3245,-2.078616 -1.221,-2.924535 0.19275,-1.569068 2.8155,-3.238947 4.19625,-3.032832 -0.19525,-0.08734 -0.411,-0.136745 -0.642,-0.144231 z m -28.16075,0.1622 C 0.6525,30.075797 0.5995,30.628265 0.567,31.228144 0.58825,30.808428 0.63975,30.417159 0.72075,29.89214 c 0.022,0.167188 0.05175,0.373303 0.0995,0.541488 -0.0505,-0.260014 -0.0555,-0.721152 -0.0815,-0.920779 z m 28.423,0.523522 c -0.2935,-0.0045 -0.71525,0.11229 -1.1845,0.14423 1.1895,-0.01797 1.4545,-0.276483 0.81375,2.076121 -0.5065,1.860024 1.016,1.667384 1.4015,1.624464 -0.40875,-0.03343 -1.302,-0.410733 -0.92225,-1.696829 0.52575,-1.779675 0.3805,-2.1405 -0.1085,-2.147986 z m -9.62225,0.270993 c -0.87975,0.05689 -1.4585,1.659399 -2.0165,1.949857 0.563,0.674739 1.34475,-2.080113 2.67675,-1.715295 -0.238,-0.187649 -0.45725,-0.248037 -0.66025,-0.234562 z m 14.65,0.559455 c -0.88025,0.742612 0.2325,7.594308 1.257,6.227862 -1.16725,-0.943238 -1.1375,-3.650678 -1.257,-6.227862 z m -14.47825,0.0544 c -0.02125,0.0035 -0.044,0.0075 -0.06325,0.01797 0.5365,1.463266 1.60975,4.181187 1.03975,6.76935 -1.496,-0.05889 -5.14375,1.664889 -5.878,2.797772 -1.056,1.630453 0.9895,2.688476 0.633,3.43009 -0.66775,1.389404 -2.62675,1.676367 -3.83425,0.794515 0.69325,1.176801 3.4675,0.933755 4.0695,-0.794515 0.33525,-0.9632 -1.53975,-1.844054 -0.89525,-3.032832 0.7165,-1.321531 4.25175,-2.965459 6.1945,-2.816238 0.0275,-0.178167 0.156,-0.367313 0.24425,-0.812481 0.38925,-1.960836 -0.78875,-6.119066 -1.447,-6.354126 -0.02175,-0.0075 -0.04175,-0.0035 -0.06325,4.99e-4 z m 17.073749,2.90607 c -0.568,0.0534 -1.2115,2.673504 -1.43775,2.779805 0.66775,0.703186 1.03275,-2.610123 1.67275,-2.617609 -0.07625,-0.110792 -0.15375,-0.169682 -0.235,-0.162196 z m 0.0905,0.487588 c -0.13875,0.817972 0.7725,1.337002 0.30725,4.711696 -0.4635,0.07586 -1.10075,-0.261013 -1.66375,1.082976 -0.17625,0.420714 -0.79,5.348006 0.19,7.238972 -1.32175,2.685981 -3.7475,3.091721 -4.0425,3.483991 -0.1835,0.745105 2.92475,-0.484095 4.06925,-2.924536 0.3285,-0.699693 2.9965,-5.334032 3.26475,-4.981691 0.15125,0.19813 -0.4635,3.40364 -0.32575,3.91718 0.13675,0.50855 1.42225,-2.123033 1.68225,-3.267394 -0.456,1.322528 -1.34125,3.180556 -1.3925,2.743872 -0.13325,-1.134879 0.611,-4.143257 0.009,-3.772949 -0.602,0.370308 -2.49825,3.273383 -2.939,4.224106 -0.446,-0.239053 -0.61725,-4.591919 -0.19,-6.42649 0.3055,-1.312049 1.53725,-0.325891 1.718,-1.425836 0.31125,-1.892963 -0.0825,-4.31294 -0.687,-4.603897 z M 2.48425,37.040781 c -0.25,-0.01398 -0.47,0.171181 -0.56975,0.704185 -0.13475,0.719655 0.49475,2.429959 0.181,3.123163 C 1.752,41.626213 1.3015,41.5793 0.73,40.199878 c 0.1565,0.693205 0.85425,1.807123 1.48325,0.740117 0.42525,-0.721152 -0.36375,-2.237319 -0.19,-3.195029 0.18425,-1.015104 0.918,-0.521526 1.32925,0.144729 0.5305,0.858895 -0.281,1.673872 -0.172,2.653541 0.266,2.390034 2.9615,2.522287 3.554,2.202385 -0.364,2.50432 -0.12,7.613274 1.91725,6.047698 C 6.9525,49.945666 6.49175,45.414633 6.9605,42.439193 5.84375,43.077001 3.46125,42.508564 3.31625,40.652033 3.1965,39.117401 4.2025,38.715153 3.271,37.583268 3.02225,37.280334 2.73425,37.054755 2.48425,37.040781 Z m 21.45025,1.155341 c -0.1295,0.03144 -0.45025,0.135248 -0.69625,0.162197 -0.32825,0.03593 -1.74275,0.11778 -1.7545,0.198629 -0.02525,0.174175 1.30275,-0.0539 1.628,-0.07236 0.32475,-0.01797 0.8075,-0.205116 0.877,-0.28896 0.01175,-0.01297 -0.011,-0.01 -0.05425,4.99e-4 z m -4.01525,0.306927 c -0.13175,0.01 -0.25625,0.04143 -0.37975,0.07237 0.477,0.03393 0.77475,-0.03294 0.96775,0.09033 -0.03225,1.145359 -1.0085,7.190064 1.709,7.166607 -2.04025,-0.954715 -1.4655,-4.582436 -1.38375,-7.256938 -0.1245,-0.03993 -0.51775,-0.102309 -0.91325,-0.07237 z m -19.298,1.371936 c -0.16675,1.289091 -0.0339995,4.715688 0.2895,5.487745 0.16375,0.39077 0.1915,-0.774053 0.50625,0.09033 0.3315,0.909301 0.588,3.370701 0.34375,4.603399 0.437,-0.987656 0.101,-3.173571 -0.16275,-4.458669 -0.3665,-1.785164 -0.7265,0.148223 -0.81375,-1.011111 -0.091,-1.203251 -0.292,-2.706941 -0.163,-4.711694 z m 10.481,1.245672 c -0.15275,-0.0075 -0.319,0.006 -0.5065,0.01796 0.8405,0.147724 1.061,0.201124 1.058,0.794016 -0.0043,0.884847 -1.1175,2.386042 -0.56075,3.231462 0.5015,0.761078 0.6445,0.474114 1.92625,0.794515 -1.302,-0.482598 -1.7425,-0.576922 -1.7,-1.4982 0.043,-0.93675 0.802,-1.909432 0.651,-2.635575 -0.10925,-0.526516 -0.41,-0.682724 -0.868,-0.704184 z M 9.746,41.138622 C 8.8655,41.167067 7.97775,41.370689 7.30425,41.987037 6.9285,44.494351 6.709,47.790192 7.901,48.575724 c 0.62725,0.413727 1.20275,-1.315541 1.8085,-1.065009 1.017,0.420214 1.51575,3.49497 0.90425,5.451815 0.84425,-1.218225 0.41375,-5.734787 -1.049,-5.776708 -0.7535,-0.02196 -1.34225,1.497701 -1.682,1.136875 C 7.017,47.405411 7.13175,44.241324 7.4125,42.112802 8.27875,41.472498 8.73425,41.251911 10.61375,41.156589 10.331,41.137624 10.03925,41.129139 9.746,41.138624 Z m 31.515249,1.425836 c -0.6645,0.664758 -0.69725,3.24793 -0.3705,4.675762 -0.2075,-1.397389 -0.21025,-3.699087 0.3705,-4.675762 z M 24.5225,42.962214 c -0.9715,-0.01547 -1.5425,1.999264 -2.523,2.274251 0.88275,0.918783 1.71525,-2.227338 2.966,-2.13002 -0.15725,-0.09682 -0.30425,-0.142234 -0.443,-0.144231 z m -3.391,0.126265 c -0.0845,0.06588 -0.0425,0.70618 0.1625,1.20924 0.205,0.503559 0.57725,0.859394 0.6875,0.777048 0.04975,-0.03793 -0.25625,-0.441675 -0.47025,-0.939245 C 21.297,43.637453 21.1705,43.057536 21.1315,43.088479 Z m 3.581,0.397257 c -0.0415,0.02096 -0.07025,0.09083 -0.0815,0.19813 -0.03075,0.294949 0.613,1.003624 0.597,2.36508 -0.0095,0.794516 0.2825,2.740878 -0.85,2.472879 -1.2015,-0.284468 -2.75325,-0.365317 -2.8485,3.53839 -0.033,1.355965 -0.22075,2.34811 0.3165,3.881245 -1.41775,0.405745 -5.49025,1.700825 -5.7515,2.9425 -0.297,1.411365 1.2305,1.827585 1.058,2.32865 -0.216,0.62683 -2.00675,1.036065 -3.59,0.57742 0.297,1.1254 3.27325,1.06701 4.01525,-0.46912 0.29075,-0.601875 -1.32025,-1.299575 -1.09425,-2.292715 0.28775,-1.26364 5.20225,-2.7304 5.98675,-2.690475 -0.806,-2.12902 -0.55275,-3.406635 -0.4975,-4.278005 0.15425,-2.421975 0.46375,-3.497465 1.881,-3.212997 1.1475,0.23007 1.823,0.462635 1.83575,-2.725906 0.0053,-1.299572 -0.646,-2.604633 -0.9315,-2.635575 -0.01675,-0.0015 -0.032,-0.007 -0.0455,4.99e-4 z M 1.607,47.240222 C 1.759,49.0713 1.7415,49.974113 1.381,48.576225 1.246,48.053202 0.98225,47.309592 0.98325,48.107102 1.2395,47.586574 1.58275,50.16775 1.6885,49.461071 1.84025,48.445469 1.70825,47.240222 1.607,47.240222 Z m 29.79725,0.01796 c -1.3345,0.0045 -3.88725,1.970318 -4.32275,3.736518 -0.24525,0.99564 1.54925,1.709805 1.06725,2.41948 -2.09375,3.08274 -5.19625,2.250295 -5.18175,2.870635 0.76575,0.210105 4.22825,-0.20861 5.661,-3.069265 0.3985,-0.795515 -1.3175,-1.63095 -0.9855,-2.52678 0.59925,-1.617975 3.0885,-3.306819 4.44925,-3.105196 -0.13675,-0.234562 -0.3795,-0.32639 -0.6875,-0.325392 z m 4.80175,0.126264 c -0.48825,0.89882 0.54875,3.446559 -0.1175,5.090989 -0.58775,1.45029 -1.66775,0.13924 -2.297,2.238315 -0.4405,1.47026 -0.70475,4.34688 0.53375,3.98955 C 33.661,57.83143 33.753,56.303785 34.1715,54.93035 34.7905,52.898645 35.763,54.468215 36.36925,52.6551 36.814,51.32459 36.8185,48.87267 36.206,47.384451 Z m -4.5755,0.397757 c -0.03875,0.01 -0.071,0.06987 -0.09025,0.19813 -0.27,1.787659 -0.69675,2.069632 -0.6875,2.960967 0.0057,0.549475 0.17,0.66326 0.75975,0.468625 -0.23125,-0.10281 -0.31775,-0.480605 -0.3075,-0.73962 0.02975,-0.763572 0.393,-1.491213 0.56975,-2.328648 0.0395,-0.188148 -0.128,-0.590895 -0.24425,-0.559454 z m -21.91175,0.08983 c 0.70125,2.0332 0.78925,3.751989 0.3165,4.711694 C 9.7895,53.082805 8.5,50.74667 7.91925,51.75329 7.0515,53.25698 7.488,57.08183 8.20875,58.469235 7.1845,58.662375 5.5515,58.006105 4.88075,56.464985 4.5985,55.816695 5.22425,55.2258 4.953,54.40733 4.59825,53.33533 2.649,51.62952 2.5295,52.529335 c -0.01975,0.149725 0.00675,0.35933 0.04525,0.577425 -0.01625,-0.12477 -0.013,-0.2146 0.018001,-0.270495 0.4145,-0.752095 1.73275,1.057025 2.279,1.73276 0.29025,0.35983 -0.32975,1.58554 -0.0905,2.04019 0.7929999,1.50768 2.2722499,2.63258 3.7619999,2.004255 -0.74675,-1.73027 -1.182,-4.77907 -0.5245,-6.318195 0.4025,-0.94274 1.61575,1.154345 2.2337501,0.613355 0.72525,-0.634815 0.30925,-4.733655 -0.533751,-5.036589 z m -0.7145,0.595886 C 8.928,48.547279 8.85,48.62164 8.77825,48.685022 c 0.0735,-0.06089 0.148,-0.135747 0.226,-0.217095 z M 1.173,48.485894 c -0.14825,2.472876 0.76875,6.421501 1.84475,7.311336 0.757,0.62583 -0.0075,-1.088965 -0.3255,-2.184415 C 2.9525,54.59398 3.4135,55.729855 3.22575,55.6525 2.17525,55.22031 1.232,51.64 1.173,48.485894 Z m 22.3005,0.686217 c -0.113,0.007 -0.19175,0.03393 -0.18975,0.07236 0.0072,0.167687 1.21775,0.393265 1.2115,0.180164 C 24.49075,49.254957 23.813,49.150652 23.4735,49.172111 Z M 8.28075,52.385605 c -0.45625,0.06788 -0.42925,4.755615 0.38,5.95737 0.34025,0.505555 3.98475,-0.826455 5.48,0.90281 C 13.154,57.083825 9.6247495,58.24865 8.80525,58.000115 7.9855,57.75158 7.89775,52.305755 8.326,52.40407 8.31025,52.39557 8.2955,52.38312 8.28075,52.38562 Z M 2.9815,52.963025 C 2.32475,52.935575 3.61475,55.48182 3.506,56.266355 3.88125,55.18637 2.67025,53.57738 2.9815,52.963025 Z m 1.456,1.444305 c 0.27525,0.59189 -0.55825,1.549105 0.416,2.8881 -0.745,-1.671375 0.41175,-2.286725 -0.416,-2.8881 z m 31.831999,1.10094 c -0.7245,-0.02995 -1.37325,1.96383 -1.90825,3.068765 0.66075,-0.970185 1.267,-2.469885 2.05275,-3.03283 -0.04875,-0.02045 -0.096,-0.03395 -0.1445,-0.03595 z m -0.16275,0.48759 c -0.013,-5e-4 -0.02525,0.01495 -0.03625,0.03595 -0.25925,0.491085 0.327,2.6226 -0.2625,4.45917 -0.76225,1.7652 -2.69325,3.41262 -3.852,4.35087 0.82075,-0.06737 2.98275,-2.228835 3.599,-3.466025 -0.34275,1.97082 -0.83875,3.54837 -0.16275,3.37619 -0.56,-0.343855 0.24675,-2.724905 0.47025,-3.95361 0.8945,-1.180795 1.39825,-2.53626 2.25175,-4.06191 -0.52875,0.77605 -1.41675,2.71343 -1.944249,3.23146 0.484249,-1.67437 0.128499,-3.966585 -0.06325,-3.972075 z m 2.4235,0.361325 c -1.30075,4.786055 -0.4185,2.587165 0.5605,0.108295 -0.90475,1.64892 -1.75,4.798035 -0.5605,-0.108295 z m -15.725999,0.34286 c -0.1085,0.07186 -0.2285,0.45315 -0.18075,0.57742 0.389,1.01011 0.90475,2.668515 0.88625,3.123165 -0.127,3.06627 -1.124,1.950855 -2.1615,1.73326 -0.70575,-0.148725 -1.68725,0.5874 -1.74525,1.805125 -0.08675,1.818605 0.7115,3.25442 1.24825,2.9425 -0.6265,-0.815975 -0.901,-1.79065 -0.796,-2.960465 0.1505,-1.67387 1.72875,-1.43981 2.36925,-1.20974 0.983,0.35284 1.476,-1.216725 1.5195,-2.45541 0.02725,-0.79252 -0.4905,-2.1405 -1.04,-3.502455 -0.028,-0.06788 -0.06375,-0.07785 -0.09975,-0.0534 z m -13.791,2.22035 C 8.9,59.182405 10.189,61.4312 10.035,63.54176 10.60275,62.13339 9.11925,58.674855 9.01325,58.920395 Z m 4.10575,0.01745 c 0.3635,0.607365 0.26575,0.90631 0.03625,1.31804 -0.56775,1.019095 -0.59175,1.458275 0.34375,2.02222 -0.5895,-0.97917 -0.2605,-1.201255 -0.018,-1.64293 0.42025,-0.76607 0.38525,-1.61049 -0.362,-1.69733 z M 8.65175,59.06461 C 8.563,58.92537 9.7725,62.090455 9.4565,63.433445 9.262,64.2599 7.65325,61.51603 7.259,62.567065 7.07275,63.06314 7.72125,65.25055 8.32625,66.249685 7.67375,64.85429 7.12175,63.172435 7.431,62.74723 c 0.47775,-0.655775 1.7385,2.072625 2.24275,1.065505 0.57575,-1.151845 -0.639,-4.14675 -1.022,-4.748125 z m 28.205749,2.689975 c -0.2675,-0.03945 -1.00575,1.86102 -1.3385,2.70794 0.3795,-0.81947 1.105,-2.38754 1.1935,-2.346615 0.0785,0.03595 -0.0495,0.787525 -0.15375,1.082975 -0.5745,1.63095 -1.4655,2.275745 -1.9715,3.61025 -0.365,0.897825 -0.79175,1.721285 -0.82275,2.834705 0.06875,-0.795015 0.57775,-1.971815 0.90425,-2.69047 0.6845,-1.59602 1.28125,-2.1939 1.88075,-3.48349 0.247,-0.53101 0.44925,-1.529645 0.3525,-1.678865 -0.01275,-0.02145 -0.027,-0.03395 -0.0445,-0.03645 z m -4.53075,0.46912 c -1.3955,0.03695 -4.3375,2.76633 -4.196,3.71855 0.07325,0.49308 0.923,0.732135 0.7145,1.155345 -0.90725,1.83906 -3.885,2.21486 -4.169,2.70794 1.6465,-0.256025 3.82825,-1.25865 4.7205,-3.01437 0.18125,-0.35683 -0.9635,-0.773055 -0.832,-1.19227 0.1955,-0.623335 2.5295,-3.00688 4.01525,-3.357725 -0.078,-0.02195 -0.16025,-0.01945 -0.25325,-0.01745 z m -0.02725,0.39726 c -0.16275,-0.13874 -1.8135,3.875255 -0.45225,2.45491 -0.566,-0.145725 0.8055,-2.152975 0.45225,-2.45491 z M 7.5845,63.34313 c 0.3115,2.030205 0.981,3.72354 1.863,2.960965 0.51325,-0.44417 2.2805,1.656405 2.6135,4.02598 -0.05225,-2.016735 -1.663,-4.77408 -2.6315,-4.35137 -0.986,0.430695 -0.936,-0.06538 -1.845,-2.635575 z m -2.089,1.4987 c -0.17225,0.01545 0.6335,1.194765 1.04,2.202385 C 6.601,67.20691 6.14125,66.53167 6.02,66.502225 c 0.1125,0.22508 0.808,1.06451 0.7325,0.77705 C 6.585,66.640965 5.54,65.148255 5.7035,65.18469 6.0235,65.25705 8.54675,67.743405 7.919,68.182085 8.77925,67.71895 6.27675,65.38182 5.631,64.914195 5.563,64.864295 5.52025,64.839335 5.4955,64.84183 Z m 17.77,0.216595 c -0.73275,0.11678 -1.4375,1.09645 -2.14325,1.570065 0.64375,0.38977 1.49025,-1.586035 2.88475,-1.336005 -0.25025,-0.200625 -0.49725,-0.27299 -0.7415,-0.23406 z m 0.28925,0.68572 c -0.05275,0.01495 -0.09575,0.07286 -0.1355,0.162195 0.37725,0.73163 0.764,1.238685 0.83175,2.47338 0.05075,0.558455 -0.07775,0.9073 -0.208,1.353965 0.1515,0.15721 0.22375,0.02995 0.38,0.03595 0.19975,-0.52003 0.2935,-1.153845 0.23525,-1.660395 -0.10675,-0.924775 -0.734,-2.47288 -1.1035,-2.36508 z m -13.2665,1.20924 c 1.89775,4.160225 1.9965,5.46229 -2.315,1.607495 3.055,4.132775 5.52525,3.474005 2.315,-1.607495 z m -2.6405,0.43369 c -0.01525,-0.0085 -0.028,0.0025 -0.04525,0.01745 C 7.499,67.49735 7.47925,68.10721 7.738,68.34377 7.804,68.01189 7.75325,67.442455 7.64775,67.38706 Z m 15.88,2.436945 c -1.639,0.152215 -4.36875,1.36844 -5.173,1.93189 -0.54,0.37829 1.17125,1.469255 0.86825,1.58853 -1.187,0.46613 -1.70825,0.41822 -3.0295,0.14473 0.6855,0.44816 2.691,0.650285 3.4815,-0.108795 0.38825,-0.372305 -1.2695,-1.14536 -0.9315,-1.389905 1.45325,-1.052035 3.20175,-1.34948 5.40775,-2.148485 -0.1805,-0.02645 -0.3895,-0.0394 -0.6235,-0.01795 z m 9.839,0.415225 C 32.648,70.46632 29.666,75.08419 31.6395,71.80931 c -2.43725,3.70358 1.3805,-1.517665 1.845,-1.5521 -0.026,-0.02795 -0.07,-0.03295 -0.11775,-0.01795 z m -9.215,0.108295 c -0.54175,0.0479 -0.593,1.195765 -0.58775,2.004255 0.0057,0.88285 0.48825,1.51317 1.1485,1.20974 -0.4565,-0.3753 -0.67525,-0.50805 -0.7055,-1.425835 -0.02775,-0.843925 0.0385,-1.144365 0.2535,-1.78766 -0.041,-0.0075 -0.07275,-0.0035 -0.10875,-5e-4 z m -11.467,0.59539 c -0.36,0.008 -0.58625,0.03695 -0.57875,0.09083 0.03975,0.28696 3.1305,-0.06189 4.68425,1.173805 -0.75,-1.024585 -3.0255,-1.286095 -4.1055,-1.264635 z M 11.645,71.41305 c -0.0135,-0.0015 -0.031,0.0045 -0.04525,0.01795 -0.268,0.25303 0.50375,2.14 1.22075,2.76184 -0.83225,-1.15135 -0.97375,-2.76134 -1.1755,-2.779805 z m 0.38875,0.162195 c 0.43225,1.908935 0.8935,2.977435 2.0075,2.85267 0.7415,-0.08334 1.68,0.15621 2.23375,1.281605 -0.50275,-1.234195 -1.2515,-1.613985 -2.45075,-1.58903 -0.827,0.01695 -1.4805,-1.44929 -1.7905,-2.545245 z m 15.23775,0 c -0.687,-0.004 -2.0225,1.68485 -2.4325,1.75123 0.561,0.447165 1.444,-1.393895 2.67675,-1.64243 -0.067,-0.07985 -0.146,-0.1083 -0.24425,-0.1088 z m 4.0875,0.126265 c -0.756,0.275485 -2.67725,1.577055 -3.2825,2.779805 -0.08675,0.17268 0.47,0.120275 0.389,0.25303 -0.712,1.16432 -3.09075,1.659395 -3.6085,2.36508 -0.2305,0.31441 0.53525,0.34236 0.33475,0.55945 -0.54325,0.587905 -2.05875,0.356335 -2.532,1.17381 0.37675,-0.411235 2.54825,-0.84193 2.78525,-1.227705 0.161,-0.26201 -0.599,-0.484095 -0.36175,-0.63232 0.9035,-0.563445 2.93025,-1.05852 3.69875,-2.401015 0.15175,-0.265005 -0.724,-0.012 -0.29825,-0.46912 0.88475,-0.951225 2.1425,-1.947365 2.767,-2.23832 0.1655,-0.07685 -0.49325,0.769565 -0.66025,1.191275 0.2065,-0.248035 0.966,-1.425835 0.7685,-1.35397 z m -15.56325,0.23456 c 0.483,0.68572 -0.9265,1.286595 0.199,1.823095 -0.42275,-0.97967 0.9815,-1.484225 -0.199,-1.823095 z m 11.46675,0.216595 c -0.097,-0.01195 -0.21125,0.04095 -0.33475,0.1627 0.589,0.434685 0.15825,1.853535 -0.44275,1.895455 -0.6045,0.0424 -1.0905,-0.0534 -1.63675,0.48759 -0.504,0.499065 -0.82375,1.237685 -0.65125,2.293215 -1.01425,0.27199 -2.97325,0.82945 -3.6625,1.136875 -0.10325,0.0464 0.0525,0.13874 0.217,0.217095 -0.0655,-0.08783 0.01575,-0.211605 0.09025,-0.25303 0.65475,-0.365315 2.68075,-0.71666 3.8345,-1.01111 -0.0995,-0.483595 -0.225,-1.039055 0.09925,-1.73326 0.3435,-0.73413 0.89725,-0.843925 1.673,-0.92028 0.44025,-0.0439 0.881,-0.484595 1.121,-1.26414 0.13475,-0.435185 -0.01575,-0.97368 -0.307,-1.01111 z M 15.18975,74.75231 c 0.26225,0.403245 0.69575,1.227205 0.46125,1.24567 -0.54475,0.0444 -2.221,-1.008615 -1.9805,-0.360825 0.92375,2.48835 3.8435,1.897455 5.39875,2.545245 -1.311,-0.721155 -4.2375,-0.27399 -5.06425,-2.292715 -0.41125,-1.004625 1.8135,0.921275 2.0075,0.27099 0.11475,-0.38478 -0.53775,-1.109425 -0.82275,-1.408365 z" />
    <path
       id="path2291"
       fill="#ffffff"
       stroke="#ffffff"
       stroke-width="0.0496632"
       d="M 29.026,1.044049 C 28.708,1.2716237 28.57675,1.2621414 28.42925,1.6035035 28.52,1.8395624 28.7935,2.0621465 28.9355,2.2173564 30.0365,3.421606 29.82825,3.295342 29.36025,4.1492463 30.23275,3.2943438 29.58,2.9040731 28.9625,2.2173564 28.678,1.9014468 28.69075,1.9059384 28.48325,1.6035035 28.6265,1.377426 28.78175,1.2257095 29.026,1.044049 Z m -3.6895,2.0037555 c -0.02875,0 -0.01525,0.031941 -0.0905,0.053899 0.3645,0.6527802 1.5155,3.7944092 2.089,3.1051972 -0.65875,0.084342 -1.3805,-2.0461762 -1.9985,-3.1590962 z m 6.67375,0.7940162 C 32.1495,4.2076371 32.119,4.3099459 32.0555,4.4197408 32.38675,4.5075766 32.102,4.0035186 32.01025,3.8418207 Z M 28.2935,5.5211825 c 0.52725,0.2944495 0.9135,0.835938 1.25675,1.660896 C 29.807,7.798926 30.0035,8.523572 29.82175,9.095503 30.34025,8.5295605 29.94575,7.7819575 29.5775,6.9649845 29.19525,6.118067 28.7665,5.69386 28.2935,5.5211825 Z M 28.0945,5.665413 C 27.921,5.990306 27.68725,6.509835 27.751,6.622125 27.9155,6.9125825 28.1005,6.272778 28.0945,5.665413 Z m 0.425,3.231461 c -0.13575,-0.0025 -0.0038,1.203252 0.235,2.112054 0.34225,1.303564 0.84975,2.566703 1.26575,3.068765 -0.01325,-0.130257 0.0175,-0.25153 0.0635,-0.343358 -0.941,-1.691839 -0.84075,-2.089595 -1.212,-3.159097 -0.36925,-1.064511 -0.1485,-1.4847255 -0.3255,-1.6608965 -0.011,-0.01098 -0.01775,-0.01747 -0.02675,-0.01747 z m 7.306999,0.975178 c 0.0955,0.543984 -0.15825,0.513541 -0.3435,0.541488 1.0605,2.053163 1.75,3.680123 1.82675,4.567465 -0.06775,-1.282104 -1.087,-3.235953 -1.664,-4.440702 0.3,-0.06438 0.24,-0.5679385 0.18075,-0.668251 z m -0.7595,0.378792 c -0.7495,0.988653 -0.96525,1.373933 -0.588,2.058154 -0.26075,-0.624333 0.09275,-1.31654 0.588,-2.058154 z m -2.035,2.328649 c 0.74,0.585905 0.216,2.839194 0.805,2.617608 -0.41025,-0.464632 0.1665,-2.122533 -0.805,-2.617608 z m -1.067,0.108297 c -1.3925,0.872869 -2.05425,2.665519 -2.79425,3.14113 0.348,-0.183656 0.7825,-0.677733 1.1395,-1.245672 0.48475,0.535999 0.89525,1.369441 1.1575,2.401013 0.29675,1.165822 0.78625,2.77232 0.15375,3.574321 0.826,-0.801502 0.579,-2.020724 0.10875,-3.592287 -0.2875,-0.959707 -0.7525,-1.870505 -1.16675,-2.617608 0.46,-0.614352 0.8335,-1.045547 1.4015,-1.660897 z m 2.75825,0.03594 c 0.79925,1.090462 0.811,1.943868 0.08125,2.906569 1.0725,-1.232198 0.58225,-2.002758 -0.08125,-2.906569 z m -8.8715,0.57792 c 0.77125,1.076988 -0.54175,2.736886 0.425,2.85217 -0.54375,-0.649785 0.78325,-2.363084 -0.425,-2.85217 z m -7.18925,0.09033 c -0.5665,3.445063 -0.1675,5.188305 0.416,6.571221 0.495,1.173307 1.48875,4.059913 0.66025,6.354625 -0.601,1.664389 -1.8535,-0.598382 -2.731,0.559454 -0.82275,1.085472 -0.65875,3.424601 -0.018,4.982689 1.076,2.616111 2.31275,-2.266764 3.08375,-0.848415 1.38325,2.544246 1.53425,5.539648 1.004,7.185074 -0.21775,0.67424 -0.3825,3.128154 -0.2625,4.602898 0.12,1.474744 0.53025,1.964828 1.23925,2.870636 0.8425,1.075989 1.76175,-1.476242 2.6495,-2.184418 0.76275,-0.608863 1.968,4.493103 0.32575,5.686872 1.80275,0.459642 1.273,-6.632106 -0.3165,-6.011765 -1.145,0.447164 -1.83875,3.103201 -2.85775,2.148485 -1.22675,-1.149851 -1.034,-4.670772 -0.76875,-6.76935 2.63375,-0.543485 4.73525,0.04342 5.9955,-3.231461 0.414251,-1.076489 -1.756,-2.291219 -1.275,-3.050799 0.5,-0.789525 1.921,-1.881983 1.935,-1.895458 -0.942,0.334375 -1.34975,0.396259 -2.1705,1.823093 -0.57725,1.004623 1.5395,2.105066 1.13025,3.068765 -1.17275,2.765832 -3.39725,3.062278 -5.32625,2.816237 0.32725,-2.631582 0.22725,-4.547502 -0.968,-6.932045 -0.964,-1.924404 -2.29975,2.329646 -3.00225,1.101441 -0.8805,-1.539623 -0.88625,-3.894722 -0.5065,-4.946756 0.62475,-1.729268 2.16925,0.987655 3.14675,-0.848414 0.81225,-1.52515 -0.2085,-4.484121 -0.651,-6.408525 0.5465,-0.137742 1.21525,-0.279976 1.872,-0.469123 -0.81,0.158205 -1.6145,0.132752 -2.09825,0.162696 -0.5705,-2.200388 -0.82725,-3.711065 -0.50575,-6.337657 z m 5.471,0.253028 c -0.62625,0.394263 -0.6065,0.228572 -1.284,0.956712 -0.90975,0.977174 1.227,1.700322 0.88625,2.888602 -0.24225,0.842925 -0.72625,1.354469 -1.30225,1.678862 0.64675,-0.270993 1.1925,-0.622337 1.45575,-1.065009 0.91075,-1.531139 -1.827,-2.75585 -0.87725,-3.556355 0.37475,-0.316408 0.572,-0.51903 1.1215,-0.902812 z m -1.69975,5.523677 c -0.3575,0.149721 -0.745,0.282473 -1.13975,0.396759 0.39275,-0.07835 0.78175,-0.195135 1.13975,-0.396759 z m 14.2425,-4.20614 c -0.11725,-0.0015 0.267,1.643928 0.4795,2.183919 0.15825,0.402748 0.602,1.566573 0.63275,1.408369 0.0185,-0.09383 -0.402,-1.054031 -0.60575,-1.588532 -0.2285,-0.600877 -0.4455,-2.002757 -0.5065,-2.003756 z m 1.411,2.870636 c 0.02275,1.081978 -0.015,1.017099 -0.10875,1.317538 0.254,0.245541 0.217,-0.774054 0.10875,-1.317538 z m 0.407,0.378792 c 0.2345,0.628326 0.44525,1.334506 0.61475,1.967823 -0.15675,-0.697197 -0.345,-1.298573 -0.61475,-1.967823 z m 0.61475,1.985789 c 0.11975,0.533004 0.2305,1.116913 0.35275,1.823093 0.06225,-0.0524 -0.0935,-0.853904 -0.35275,-1.823093 z m -9.206,0.397258 c -0.34925,0.166189 -0.2515,3.377189 0.9675,4.567465 -1.45925,-2.422473 -0.53275,-4.322922 -0.88625,-4.549499 -0.02675,-0.01746 -0.058,-0.02895 -0.08125,-0.01797 z m 9.74875,2.148485 c -0.0045,0.01 -0.01375,0.008 -0.018,0.01797 0.13275,0.837935 0.26775,1.655407 0.37075,2.382548 0.10525,0.745108 0.32025,2.618607 0.5695,2.292716 -0.25525,0.150219 -0.443,-1.538126 -0.5515,-2.383047 -0.0885,-0.685719 -0.2135,-1.365448 -0.37075,-2.310183 z m -0.22625,0.252528 c -0.197,0.333876 -0.43375,0.936251 -0.47025,1.029077 -0.3635,0.927267 -0.4935,1.682356 -0.30725,2.401013 -0.124,-0.535998 0.108,-1.579049 0.3165,-2.147986 0.21225,-0.579916 0.3105,-0.83993 0.461,-1.282104 z m -6.46575,0.469121 c -0.04875,-0.01797 -0.07875,0.01697 -0.08125,0.126265 -0.01,0.397756 1.55425,3.01237 1.43775,5.9933 0.18625,-0.318405 0.08125,-0.218592 0.199001,-0.415224 0.09225,-2.571195 -1.213501,-5.580073 -1.555501,-5.704341 z m -0.70525,0.451656 c -0.19875,0.01347 -0.912,1.524152 -0.796,1.624465 0.11425,0.09882 0.97,-1.383914 0.832,-1.606498 -0.0082,-0.01347 -0.023,-0.01897 -0.03599,-0.01797 z m 6.42025,2.617609 c 0.0425,0.138741 0.0855,0.278479 0.15375,0.415224 0.476,0.951721 0.42575,1.030075 0.33475,1.696829 -0.0715,0.524021 -0.25925,1.079483 -0.52475,1.624963 0.81925,-1.570565 0.80375,-2.507314 0.0815,-3.646685 -0.0165,-0.02645 -0.0325,-0.05789 -0.04525,-0.09033 z m -1.23875,0.595886 c -0.0185,-0.006 -0.038,0.006 -0.05425,0.01797 -0.09625,0.07037 0.24625,0.187151 0.19,1.516167 -0.02775,0.644795 -0.13525,1.54661 -0.02725,1.877491 0.0745,-0.06338 0.0093,-0.102807 0.0905,-0.07236 -0.1375,-0.721153 0.01875,-1.270127 0.04525,-1.841559 0.044,-0.961703 -0.11475,-1.456279 -0.24425,-1.497701 z m -0.82275,0.234562 c -0.19975,0.0564 -1.03325,0.943237 -2.33325,2.85217 -0.05675,4.230594 0.514,6.506342 0.9495,6.228361 0.1265,-0.08085 -0.63025,-0.820467 -0.7325,-5.939401 1.7315,-2.746368 2.17775,-2.920542 2.16125,-3.123164 -0.002,-0.02545 -0.0165,-0.02645 -0.045,-0.01797 z m 4.0785,0.324893 c -0.03775,0.02795 -0.106,0.262509 -0.06325,0.397258 0.10975,0.34735 0.05025,-0.317906 0.06325,-0.397258 z m -11.4125,1.913424 c -0.36225,0.04891 -0.77725,0.286465 -1.09425,0.451157 0.624,-0.149221 1.46675,-0.349347 1.483,0.306927 0.02275,0.922276 -0.63425,2.337631 -0.34375,2.85217 0.7535,1.334506 3.38675,0.400751 4.50375,-1.498201 -0.0037,-0.111292 0.0885,-0.49757 0.03625,-0.523521 -0.5895,1.227705 -3.2155,3.411125 -4.2775,2.148485 -0.395,-0.469623 0.64025,-2.086102 0.4795,-3.014866 -0.10775,-0.620341 -0.425,-0.771059 -0.787,-0.722151 z m 11.76525,1.371936 c -0.0068,0.02546 -0.0057,0.07835 -0.0093,0.14473 0.0035,-0.06288 0.0025,-0.108298 0.0093,-0.14473 z m 0.018,1.787161 c 0.016,0.434188 0.0305,0.828951 0.03625,1.01111 0.005,0.159203 0.01375,0.344357 0.02675,0.559455 -0.01225,-0.209608 -0.01475,-0.405243 -0.018,-0.559455 -0.005,-0.239053 -0.0275,-0.613853 -0.045,-1.01111 z m -3.8345,1.35397 c -0.0057,0 -0.0067,0.006 -0.009,0.01796 -0.03975,0.237556 0.451,1.559585 0.47925,2.870136 0.0575,2.654539 -0.486,2.598644 -0.38,2.798271 0.1075,0.201124 0.63925,-0.810985 0.606,-2.780305 -0.02575,-1.541619 -0.60825,-2.907566 -0.69625,-2.906069 z m -0.50625,0.43319 c -0.35525,0.641801 -0.6615,1.502193 -0.9585,2.256284 0.5245,-0.466129 0.75425,-1.358462 0.9585,-2.256284 z m 4.48525,0.812482 c 0.03275,0.336371 0.06975,0.639305 0.1085,0.848414 -0.0365,-0.222584 -0.0755,-0.521525 -0.1085,-0.848414 z m -0.1265,2.202384 c -0.24025,1.149851 -0.5225,1.95335 -0.74175,3.212996 -0.15225,0.875364 0.23175,1.361456 0.235,1.805127 0.0018,0.204617 -0.02575,0.443671 -0.08125,0.703685 0.03475,-0.142235 0.07075,-0.277981 0.1085,-0.433191 0.0795,-0.327887 -0.1315,-0.774552 -0.226,-1.407869 -0.106,-0.71167 0.50725,-2.601139 0.7055,-3.880748 z m -4.35875,2.13002 c -0.19925,0.01148 -0.39225,0.06887 -0.389,0.144729 0.0075,0.167687 0.80175,0.213102 0.79575,0 -0.003,-0.113288 -0.2075,-0.156208 -0.40675,-0.144729 z m -0.5245,0.198629 c -0.46425,-0.0524 -0.563,2.308685 -0.56075,3.375691 0.0027,1.253658 0.10275,3.167581 0.389,3.43009 0.02975,-0.120774 0.1675,-0.28896 0.19875,-0.415224 -0.40975,-0.680728 -0.31425,-1.939375 -0.3615,-2.924534 -0.0565,-1.170313 0.4225,-3.456042 0.3345,-3.466023 z m 3.174,2.743872 c -0.1505,0.07037 -0.02125,0.766568 -0.16275,1.660397 -0.117,0.73862 -0.3365,1.745738 -0.1445,1.93189 -0.01575,-0.641302 0.1855,-1.420845 0.28025,-2.184418 0.09425,-0.764072 0.17375,-1.476241 0.027,-1.407869 z M 41.18,42.889851 c -0.30475,0.486591 -0.47975,2.417982 -0.2985,3.62822 -0.1255,-1.326022 0.01675,-3.067767 0.2985,-3.62822 z m -2.514,0.432692 c -0.8045,1.08597 -1.732,2.453415 -2.45075,3.809381 0.966,2.954976 0.50975,5.872026 -0.67825,7.022376 1.708,-1.15085 1.70175,-5.782693 0.9495,-7.238971 0.5355,-1.070999 1.9775,-3.09322 2.1795,-3.592786 z m 1.57325,0.830448 c -0.0825,0.237556 -0.18025,0.499067 -0.32525,0.848414 0.12375,-0.29944 0.23575,-0.587901 0.32525,-0.848414 z M 7.0690015,47.276154 c 0.43025,1.478737 0.863,1.779675 1.3385,1.552599 0.542,-0.259515 1.08475,-1.317039 1.447,-0.974679 0.6572505,0.619842 1.0985005,3.273381 0.6060005,4.748126 -0.5105005,1.527645 -1.5225005,-0.868375 -2.2970005,-0.415225 -0.7735,0.452155 -0.218,5.532665 0.45225,6.48039 -1.64425,0.73563 -3.13725,-0.67873 -3.9065,-2.003755 0.30525,1.86402 2.71525,3.391165 3.952,2.256285 0.73875,1.3924 1.5720005,4.10483 1.01275,4.964225 -0.53725,0.825955 -1.88175,-1.51417 -2.2155,-0.88435 -0.196,0.36931 0.715,3.406635 1.3745,3.791415 0.45075,0.26201 0.89025,-0.62084 1.5192505,0.45116 -0.4950005,-1.2327 -0.7832505,-0.6977 -1.3837505,-0.68622 -0.81875,0.01595 -1.6175,-3.143625 -1.43775,-3.48399 0.30525,-0.578915 1.65425,2.28024 2.324,0.92078 0.5500005,-1.115915 -0.4895,-3.657665 -0.9675,-5.16335 1.8225005,-0.126765 4.3857505,-0.769065 4.2412505,1.29957 0.20675,-0.39127 0.21525,-0.70518 -0.0995,-1.281105 1.2005,0.109795 0.722,1.593025 0.24425,2.22035 -0.3245,0.425705 0.27275,1.259645 0.5335,1.4438 1,0.706185 3.1,0.576925 4.169,-0.92028 0.30075,-0.42171 -1.49675,-2.04368 -1.248,-2.34711 1.40275,-1.710305 4.0385,-1.961335 5.6705,-2.61711 -1.47325,0.27099 -4.31225,0.800505 -5.815,2.41898 -0.3415,0.36781 1.43,1.789155 1.11225,2.382545 -0.45775,0.8559 -1.71125,1.297575 -2.74925,1.227705 -1.03775,-0.06987 -1.90325,-0.772555 -1.465,-1.3899 2.2815,-3.22248 -2.12575,-2.915055 -4.6842505,-2.65354 -0.87975,-0.97468 -1.21525,-5.8331 -0.633,-6.19193 0.7175,-0.442175 1.8552505,1.93239 2.4870005,0.217095 0.55525,-1.507685 0.0985,-4.497597 -0.9135005,-5.037089 -0.4505,-0.240051 -0.94475,0.766568 -1.3835,1.029077 -0.5915,0.35334 -0.9465,-0.54049 -1.285,-1.354469 z m 28.8749995,0.306927 c -0.921,2.247799 -2.497,3.262404 -3.31875,3.592289 1.84375,-0.48859 2.775,-2.259779 3.38225,-3.285363 0.02,-0.42271 -0.02525,-0.236558 -0.0635,-0.306926 z m -4.0605,0.144729 c 0.45575,0.429697 -0.67025,2.876625 -0.48825,2.924535 0.169,0.0449 1.27025,-2.49883 0.48825,-2.924535 z m -1.09425,0.396759 c -1.0535,0.429198 -2.133,1.039557 -2.87575,2.274751 -0.783,1.302065 1.451,1.782665 0.823,2.924535 -1.51,2.746365 -3.74475,2.896085 -5.7605,3.357725 0.671,1.702815 1.225,2.817735 0.91325,4.693725 -0.49425,2.97544 -2.54025,0.251035 -3.545,1.931395 -0.59425,0.99414 -0.115,2.950485 0.64225,3.35822 -0.449,-0.70468 -1.1325,-2.1934 -0.606,-3.105195 0.9345,-1.618475 3.23025,0.763575 3.81625,-1.913925 0.26275,-1.19876 -0.565,-3.774945 -0.86825,-4.711195 2.02775,-0.291955 4.2705,-1.222715 5.74275,-3.80888 0.38425,-0.67574 -1.63575,-1.67487 -1.058,-2.56371 0.90825,-1.39739 2.363,-2.220352 2.776,-2.437446 z m -7.93075,1.119907 c -0.11675,-0.02445 -0.23675,0.20362 -0.3525,0.577421 0.10475,-0.234562 0.21875,-0.432192 0.3525,-0.577421 z m -0.37075,0.63132 c -0.71325,1.660894 -0.7185,5.129414 0.226,6.462424 -0.885502,-1.775185 -0.631002,-5.084 -0.226002,-6.462424 z m 12.18125,4.296969 c -0.67525,0.485595 -1.0765,3.454045 -0.45225,4.242075 0.10225,-0.735125 -0.34325,-2.195895 0.45225,-4.242075 z m 1.75425,1.606 c -0.01525,0.002 -0.0315,0.02145 -0.0455,0.0544 -0.184,0.43818 0.39325,1.93139 -0.13575,4.00701 0.723,-0.810485 0.4065,-4.08936 0.18125,-4.06141 z m 2.297,0.415225 c -0.048,-0.05241 -0.47225,1.8196 -0.72375,2.635575 0.3045,-0.801505 0.75775,-2.59715 0.72375,-2.635575 z m -2.84875,0.07236 c -0.47375,0.655775 -0.9375,1.731265 -1.42875,2.41948 0.7545,-0.71866 1.065,-1.721285 1.42875,-2.41948 z m 2.32425,0.559955 c -0.74275,1.248665 -1.48625,2.94599 -2.30625,4.00751 -0.19975,1.05952 -0.9045,3.27887 -0.5155,3.71855 -0.14625,-0.565445 0.274,-2.582675 0.58775,-3.646685 0.70225,-1.206245 1.736,-2.993405 2.234,-4.079375 z m -2.722,4.78356 c -0.995,1.62097 -1.79625,2.329145 -3.373,3.52092 1.1505,-0.77106 2.0995,-1.339995 3.328,-3.303825 0.02,-0.111795 0.01125,-0.07486 0.045,-0.217095 z m 1.51025,0.03595 c -0.04575,-0.01445 0.246,0.854405 -1.01275,3.014865 0.922,-1.227205 1.32225,-2.913055 1.01275,-3.014865 z m -4.44025,0.741115 c -0.029,0.0105 -0.059,0.02245 -0.09925,0.0534 0.395,-0.07585 -0.499,1.662895 -0.66025,2.401515 0.39275,-0.662765 1.19375,-2.624595 0.7595,-2.454915 z m 4.08775,0 c -0.17425,0.13924 -1.07325,2.05616 -1.0675,2.09359 0.0095,0.05639 1.15325,-1.98479 1.0855,-2.09359 -0.005,-0.008 -0.0068,-0.01 -0.018,0 z m -4.549,0.30643 c -0.86425,0.4811 -2.77775,1.52864 -3.373,2.90607 -0.15325,0.354835 0.999,0.75908 0.77775,1.19227 -1.1885,2.319665 -3.921,3.08324 -5.037,3.14063 -0.34225,1.255655 -0.66975,3.090725 0.23475,3.412125 -0.63325,-0.68472 -0.26225,-2.137005 -0.1085,-3.105195 0.774,-0.30693 4.0385,-0.93875 5.15475,-3.556355 0.2605,-0.61186 -1.03225,-0.538495 -0.8955,-0.97468 0.33825,-1.077985 2.1345,-2.2473 3.24675,-3.014865 z m -8.25625,2.816235 c 1.31975,2.32765 0.961,3.449555 0.7685,4.151745 0.2795,-0.276485 0.2825,-0.27399 0.51575,-0.54149 0.15275,-1.523655 -0.648,-3.10919 -1.28425,-3.610255 z m -0.5245,0.07236 c -0.74975,0.108795 -1.25125,1.282105 -2.279,1.534135 1.176,0.07436 1.6175,-1.175305 2.4235,-1.534135 -0.0525,-0.003 -0.09475,-0.008 -0.1445,0 z M 35.1935,66.05057 c -0.1275,0.0055 -0.92125,1.78866 -1.32925,3.23196 0.5665,-1.741245 1.36675,-3.059285 1.3475,-3.19553 -0.0025,-0.01595 -0.0098,-0.03645 -0.01825,-0.03645 z m -11.403499,4.261035 c -1.6675,0.30144 -3.76375,0.93326 -4.965,1.715295 -0.258,0.16819 1.2525,1.09895 1.00375,1.31804 -0.78625,0.69071 -2.19225,0.880355 -3.2735,0.46912 0.94725,0.395265 2.81,0.582915 3.48175,-0.360825 0.21725,-0.305925 -1.35525,-1.260145 -1.08525,-1.408365 1.0805,-0.593395 3.27875,-1.26264 4.83825,-1.733265 z m 7.8675,1.209245 c -0.02375,-0.0524 -0.9295,1.388405 -0.90425,1.4982 0.0245,0.107295 0.96125,-1.37194 0.90425,-1.4982 z m -4.187,0.505555 c -0.0575,0.0015 -0.11975,0.0025 -0.18975,0.01795 0.51325,0.33188 0.579,1.10244 -0.23525,2.16645 -0.33,0.431195 -1.5235,0.152215 -2.11625,0.938745 -0.4205,0.558955 -0.3725,1.796145 -0.18075,1.64293 0.13225,-0.1053 -0.05175,-0.910795 0.28925,-1.462265 0.7,-1.131885 1.59025,-0.37979 2.306,-1.20974 0.49025,-0.56794 0.99175,-2.112055 0.12675,-2.094085 z m -11.2045,0.01795 c 0.459,0.370305 -0.4595,1.14037 -0.16275,1.516665 0.0093,-0.286965 1.0505,-0.9108 0.16275,-1.516665 z m 10.653,0 c -0.0845,-0.02945 -0.517,0.329385 -0.94975,0.75858 -0.25825,0.25652 -0.60925,0.60038 -0.814,0.63182 -0.22625,0.03445 -0.325,0.03795 -0.3345,0.09083 0.14325,0.18715 0.92775,-0.311415 1.42875,-0.794515 0.4795,-0.462135 0.678,-0.586405 0.6875,-0.650285 0.003,-0.02095 -0.006,-0.03195 -0.018,-0.03645 z m 4.015,0.09083 c -0.8615,0.45415 -1.82575,1.3909 -2.523,2.111555 -0.1815,0.18765 0.484,0.011 0.39775,0.28896 -0.345,1.114415 -3.76,2.314175 -3.744,2.54524 0.0085,0.121775 0.40175,0.19963 0.434,0.39776 0.04976,0.302935 -0.46725,0.461135 -0.7505,0.57742 0.3935,0.0499 1.08875,-0.55147 0.87725,-0.649785 -0.21925,-0.10181 -0.3245,-0.298445 -0.35275,-0.397755 -0.061,-0.212605 3.02725,-1.187285 3.762,-2.508815 0.0945,-0.16968 -0.472,-0.221085 -0.407,-0.343355 0.2385,-0.44517 2.16725,-1.886975 2.30625,-2.021225 z m -14.82175,1.4433 c 0.002,0.011 -0.0055,0.02695 0,0.03645 0.06225,0.03745 0.13325,0.05789 0.199,0.09033 -0.07,-0.0399 -0.15075,-0.08484 -0.199,-0.126765 z m -0.55175,1.390905 c 0.28825,0.348345 0.711,1.18678 0.47925,1.336 -0.5545,0.355835 -1.54425,-0.61385 -1.9805,-0.63182 -0.22525,-0.009 0.353,0.821465 0.624,1.047045 -0.1535,-0.15371 -0.65075,-0.917285 -0.5245,-0.90281 0.4575,0.0524 1.51975,0.96869 2.071,0.61335 0.34,-0.21859 -0.22375,-1.029575 -0.66925,-1.461765 z m 7.0085,2.671505 c -1.1035,0.25303 -2.0945,0.50855 -1.7455,0.66825 -0.042,-0.17068 0.8115,-0.433685 1.7455,-0.66825 z m -6.16725,0.09033 c 1.003,0.233565 2.115,0.490085 2.13425,0.45116 -0.02075,-0.06238 -1.14625,-0.253525 -2.13425,-0.45116 z m 2.6585,0.59539 c -0.08925,0.02045 -0.15825,0.174675 -0.14475,0.18066 0.05125,0.02395 0.28175,-0.09233 0.235,-0.14473 -0.0325,-0.03595 -0.0605,-0.0429 -0.09025,-0.03595 z m 2.5595,0.03595 c 0.21425,0.223085 -0.13725,0.33837 -0.6965,0.39776 0.54725,-0.0439 1.066,-0.132255 0.6965,-0.39776 z" />
  </g>
</svg>
